{
  "title" : "",
  "description" : "",
  "author" : "",
  "targetLoudness" : -18.0,
  "shouldApplyLoudnessNormalization" : true,
  "videoFormatFrameRate" : 30,
  "audioFormatSampleRate" : 44100,
  "allowSubFrameEditing" : false,
  "width" : 1728.0,
  "height" : 1080.0,
  "version" : "7.0",
  "editRate" : 705600000,
  "authoringClientName" :  {
    "name" : "Camtasia",
    "platform" : "Windows",
    "version" : "2023.0.1"
  },
  "sourceBin" : [
    {
      "id" : 1,
      "src" : "CCaller.mp4",
      "rect" : [0, 0, 1728, 1080],
      "lastMod" : "20230918T020155",
      "loudnessNormalization" : true,
      "sourceTracks" : [
        {
          "range" : [0, 2116299],
          "type" : 0,
          "editRate" : 30000,
          "trackRect" : [0, 0, 1728, 1080],
          "sampleRate" : "119997/5000",
          "bitDepth" : 24,
          "numChannels" : 0,
          "integratedLUFS" : 100.0,
          "peakLevel" : -1.0,
          "metaData" : ""
        },
        {
          "range" : [0, 3104768],
          "type" : 2,
          "editRate" : 44100,
          "trackRect" : [0, 0, 0, 0],
          "sampleRate" : 44100,
          "bitDepth" : 16,
          "numChannels" : 2,
          "integratedLUFS" : -1.79769313486232e+308,
          "peakLevel" : 0.0,
          "metaData" : ""
        }
      ],
      "metadata" : {
        "timeAdded" : "20230922T063646.848044"
      }
    }
  ],
  "timeline" : {
    "id" : 2,
    "sceneTrack" : {
      "scenes" : [
        {
          "csml" : {
            "tracks" : [
              {
                "trackIndex" : 0,
                "medias" : [
                  {
                    "id" : 3,
                    "_type" : "UnifiedMedia",
                    "video" : 
                        {
                          "id" : 4,
                          "_type" : "VMFile",
                          "src" : 1,
                          "trackNumber" : 0,
                          "attributes" : {
                            "ident" : "CCaller"
                          },
                          "parameters" : {
                            "sourceCrop0" : 0.0,
                            "sourceCrop1" : 0.0,
                            "sourceCrop2" : 0.0,
                            "sourceCrop3" : 0.0,
                            "geometryCrop0" : 0.0,
                            "geometryCrop1" : 0.0,
                            "geometryCrop2" : 0.0,
                            "geometryCrop3" : 0.0
                          },
                          "effects" : [

                          ],
                          "start" : 0,
                          "duration" : 1858080000,
                          "mediaStart" : 0,
                          "mediaDuration" : 1858080000,
                          "scalar" : 1,
                          "animationTracks" : {

                          }
                        },
                    "audio" : 
                        {
                          "id" : 5,
                          "_type" : "AMFile",
                          "src" : 1,
                          "trackNumber" : 1,
                          "attributes" : {
                            "ident" : "",
                            "gain" : 1.0,
                            "mixToMono" : false,
                            "loudnessNormalization" : true,
                            "sourceFileOffset" : 0
                          },
                            "channelNumber" : "0,1",
                          "effects" : [

                          ],
                          "start" : 0,
                          "duration" : 1858080000,
                          "mediaStart" : 0,
                          "mediaDuration" : 1858080000,
                          "scalar" : 1,
                          "animationTracks" : {

                          }
                        }
,
                    "start" : 0,
                    "duration" : 1858080000,
                    "mediaStart" : 0,
                    "mediaDuration" : 1858080000,
                    "scalar" : 1,
                    "metadata" : {
                      "clipSpeedAttribute" : false,
                      "default-height" : 1080.0,
                      "default-translation0" : 0.0,
                      "default-translation1" : 0.0,
                      "default-translation2" : 0.0,
                      "default-width" : 1728.0
                    }
                  },
                  {
                    "id" : 6,
                    "_type" : "UnifiedMedia",
                    "video" : 
                        {
                          "id" : 7,
                          "_type" : "VMFile",
                          "src" : 1,
                          "trackNumber" : 0,
                          "attributes" : {
                            "ident" : "CCaller"
                          },
                          "parameters" : {
                            "sourceCrop0" : 0.0,
                            "sourceCrop1" : 0.0,
                            "sourceCrop2" : 0.0,
                            "sourceCrop3" : 0.0,
                            "geometryCrop0" : 0.0,
                            "geometryCrop1" : 0.0,
                            "geometryCrop2" : 0.0,
                            "geometryCrop3" : 0.0
                          },
                          "effects" : [
                              {
                                "effectName" : "BlurRegion",
                                "bypassed" : false,
                                "category" : "categoryVisualEffects",
                                "parameters" : {
                                  "mask-shape" : 1,
                                  "mask-invert" : 0,
                                  "sigma" : 15.0,
                                  "color-red" : 1.0,
                                  "color-green" : 1.0,
                                  "color-blue" : 1.0,
                                  "color-alpha" : 0.25,
                                  "mask-blend" : -0.02,
                                  "mask-rotation" : 0.0,
                                  "mask-width" : 283.565217391304,
                                  "mask-height" : 214.000000000001,
                                  "mask-positionX" : 982.478260869565,
                                  "mask-positionY" : 191.086956521739,
                                  "mask-cornerRadius" : 0.0
                                },
                                "metadata" : {
                                  "effectIndex" : "0",
                                  "presetName" : "Blur Region"
                                }
                              }
                          ],
                          "start" : 1858080000,
                          "duration" : 305760000,
                          "mediaStart" : 1858080000,
                          "mediaDuration" : 305760000,
                          "scalar" : 1,
                          "animationTracks" : {

                          }
                        },
                    "audio" : 
                        {
                          "id" : 8,
                          "_type" : "AMFile",
                          "src" : 1,
                          "trackNumber" : 1,
                          "attributes" : {
                            "ident" : "",
                            "gain" : 1.0,
                            "mixToMono" : false,
                            "loudnessNormalization" : true,
                            "sourceFileOffset" : 0
                          },
                            "channelNumber" : "0,1",
                          "effects" : [

                          ],
                          "start" : 1858080000,
                          "duration" : 305760000,
                          "mediaStart" : 1858080000,
                          "mediaDuration" : 305760000,
                          "scalar" : 1,
                          "animationTracks" : {

                          }
                        }
,
                    "start" : 1858080000,
                    "duration" : 305760000,
                    "mediaStart" : 1858080000,
                    "mediaDuration" : 305760000,
                    "scalar" : 1,
                    "metadata" : {
                      "clipSpeedAttribute" : false,
                      "default-height" : 1080.0,
                      "default-translation0" : 0.0,
                      "default-translation1" : 0.0,
                      "default-translation2" : 0.0,
                      "default-width" : 1728.0
                    }
                  },
                  {
                    "id" : 9,
                    "_type" : "UnifiedMedia",
                    "video" : 
                        {
                          "id" : 10,
                          "_type" : "VMFile",
                          "src" : 1,
                          "trackNumber" : 0,
                          "attributes" : {
                            "ident" : "CCaller"
                          },
                          "parameters" : {
                            "sourceCrop0" : 0.0,
                            "sourceCrop1" : 0.0,
                            "sourceCrop2" : 0.0,
                            "sourceCrop3" : 0.0,
                            "geometryCrop0" : 0.0,
                            "geometryCrop1" : 0.0,
                            "geometryCrop2" : 0.0,
                            "geometryCrop3" : 0.0
                          },
                          "effects" : [
                              {
                                "effectName" : "BlurRegion",
                                "bypassed" : false,
                                "category" : "categoryVisualEffects",
                                "parameters" : {
                                  "mask-shape" : 1,
                                  "mask-invert" : 0,
                                  "sigma" : 15.0,
                                  "color-red" : 1.0,
                                  "color-green" : 1.0,
                                  "color-blue" : 1.0,
                                  "color-alpha" : 0.25,
                                  "mask-blend" : -0.02,
                                  "mask-rotation" : 0.0,
                                  "mask-width" : 298.782608695652,
                                  "mask-height" : 224.869565217391,
                                  "mask-positionX" : 1109.65217391304,
                                  "mask-positionY" : 192.173913043479,
                                  "mask-cornerRadius" : 0.0
                                },
                                "metadata" : {
                                  "effectIndex" : "0",
                                  "presetName" : "Blur Region"
                                }
                              }
                          ],
                          "start" : 2163840000,
                          "duration" : 164640000,
                          "mediaStart" : 2163840000,
                          "mediaDuration" : 164640000,
                          "scalar" : 1,
                          "animationTracks" : {

                          }
                        },
                    "audio" : 
                        {
                          "id" : 11,
                          "_type" : "AMFile",
                          "src" : 1,
                          "trackNumber" : 1,
                          "attributes" : {
                            "ident" : "",
                            "gain" : 1.0,
                            "mixToMono" : false,
                            "loudnessNormalization" : true,
                            "sourceFileOffset" : 0
                          },
                            "channelNumber" : "0,1",
                          "effects" : [

                          ],
                          "start" : 2163840000,
                          "duration" : 164640000,
                          "mediaStart" : 2163840000,
                          "mediaDuration" : 164640000,
                          "scalar" : 1,
                          "animationTracks" : {

                          }
                        }
,
                    "start" : 2163840000,
                    "duration" : 164640000,
                    "mediaStart" : 2163840000,
                    "mediaDuration" : 164640000,
                    "scalar" : 1,
                    "metadata" : {
                      "clipSpeedAttribute" : false,
                      "default-height" : 1080.0,
                      "default-translation0" : 0.0,
                      "default-translation1" : 0.0,
                      "default-translation2" : 0.0,
                      "default-width" : 1728.0
                    }
                  },
                  {
                    "id" : 12,
                    "_type" : "UnifiedMedia",
                    "video" : 
                        {
                          "id" : 13,
                          "_type" : "VMFile",
                          "src" : 1,
                          "trackNumber" : 0,
                          "attributes" : {
                            "ident" : "CCaller"
                          },
                          "parameters" : {
                            "sourceCrop0" : 0.0,
                            "sourceCrop1" : 0.0,
                            "sourceCrop2" : 0.0,
                            "sourceCrop3" : 0.0,
                            "geometryCrop0" : 0.0,
                            "geometryCrop1" : 0.0,
                            "geometryCrop2" : 0.0,
                            "geometryCrop3" : 0.0
                          },
                          "effects" : [

                          ],
                          "start" : 2328480000,
                          "duration" : 987840000,
                          "mediaStart" : 2328480000,
                          "mediaDuration" : 987840000,
                          "scalar" : 1,
                          "animationTracks" : {

                          }
                        },
                    "audio" : 
                        {
                          "id" : 14,
                          "_type" : "AMFile",
                          "src" : 1,
                          "trackNumber" : 1,
                          "attributes" : {
                            "ident" : "",
                            "gain" : 1.0,
                            "mixToMono" : false,
                            "loudnessNormalization" : true,
                            "sourceFileOffset" : 0
                          },
                            "channelNumber" : "0,1",
                          "effects" : [

                          ],
                          "start" : 2328480000,
                          "duration" : 987840000,
                          "mediaStart" : 2328480000,
                          "mediaDuration" : 987840000,
                          "scalar" : 1,
                          "animationTracks" : {

                          }
                        }
,
                    "start" : 2328480000,
                    "duration" : 987840000,
                    "mediaStart" : 2328480000,
                    "mediaDuration" : 987840000,
                    "scalar" : 1,
                    "metadata" : {
                      "clipSpeedAttribute" : false,
                      "default-height" : 1080.0,
                      "default-translation0" : 0.0,
                      "default-translation1" : 0.0,
                      "default-translation2" : 0.0,
                      "default-width" : 1728.0
                    }
                  },
                  {
                    "id" : 15,
                    "_type" : "UnifiedMedia",
                    "video" : 
                        {
                          "id" : 16,
                          "_type" : "VMFile",
                          "src" : 1,
                          "trackNumber" : 0,
                          "attributes" : {
                            "ident" : "CCaller"
                          },
                          "parameters" : {
                            "translation0" : 608.695652173913,
                            "translation1" : -380.434782608696,
                            "scale0" : 1.70450885668277,
                            "scale1" : 1.70450885668277,
                            "sourceCrop0" : 0.0,
                            "sourceCrop1" : 0.0,
                            "sourceCrop2" : 0.0,
                            "sourceCrop3" : 0.0,
                            "geometryCrop0" : 0.0,
                            "geometryCrop1" : 0.0,
                            "geometryCrop2" : 0.0,
                            "geometryCrop3" : 0.0
                          },
                          "effects" : [

                          ],
                          "start" : 3316320000,
                          "duration" : 799680000,
                          "mediaStart" : 3316320000,
                          "mediaDuration" : 799680000,
                          "scalar" : 1,
                          "animationTracks" : {

                          }
                        },
                    "audio" : 
                        {
                          "id" : 17,
                          "_type" : "AMFile",
                          "src" : 1,
                          "trackNumber" : 1,
                          "attributes" : {
                            "ident" : "",
                            "gain" : 1.0,
                            "mixToMono" : false,
                            "loudnessNormalization" : true,
                            "sourceFileOffset" : 0
                          },
                            "channelNumber" : "0,1",
                          "effects" : [

                          ],
                          "start" : 3316320000,
                          "duration" : 799680000,
                          "mediaStart" : 3316320000,
                          "mediaDuration" : 799680000,
                          "scalar" : 1,
                          "animationTracks" : {

                          }
                        }
,
                    "start" : 3316320000,
                    "duration" : 799680000,
                    "mediaStart" : 3316320000,
                    "mediaDuration" : 799680000,
                    "scalar" : 1,
                    "metadata" : {
                      "clipSpeedAttribute" : false,
                      "default-anchor0" : 0.0,
                      "default-anchor1" : 0.0,
                      "default-anchor2" : 0.0,
                      "default-height" : 1080.0,
                      "default-rotation0" : 0.0,
                      "default-rotation1" : 0.0,
                      "default-rotation2" : 0.0,
                      "default-scale0" : 1.0,
                      "default-scale1" : 1.0,
                      "default-scale2" : 1.0,
                      "default-shear0" : 0.0,
                      "default-shear1" : 0.0,
                      "default-shear2" : 0.0,
                      "default-translation0" : 0.0,
                      "default-translation1" : 0.0,
                      "default-translation2" : 0.0,
                      "default-width" : 1728.0
                    }
                  },
                  {
                    "id" : 18,
                    "_type" : "UnifiedMedia",
                    "video" : 
                        {
                          "id" : 19,
                          "_type" : "VMFile",
                          "src" : 1,
                          "trackNumber" : 0,
                          "attributes" : {
                            "ident" : "CCaller"
                          },
                          "parameters" : {
                            "translation0" : 608.695652173913,
                            "translation1" : -380.434782608696,
                            "scale0" : 1.70450885668277,
                            "scale1" : 1.70450885668277,
                            "sourceCrop0" : 0.0,
                            "sourceCrop1" : 0.0,
                            "sourceCrop2" : 0.0,
                            "sourceCrop3" : 0.0,
                            "geometryCrop0" : 0.0,
                            "geometryCrop1" : 0.0,
                            "geometryCrop2" : 0.0,
                            "geometryCrop3" : 0.0
                          },
                          "effects" : [

                          ],
                          "start" : 4116000000,
                          "duration" : 705600000,
                          "mediaStart" : 4116000000,
                          "mediaDuration" : 705600000,
                          "scalar" : 1,
                          "animationTracks" : {

                          }
                        },
                    "audio" : 
                        {
                          "id" : 20,
                          "_type" : "AMFile",
                          "src" : 1,
                          "trackNumber" : 1,
                          "attributes" : {
                            "ident" : "",
                            "gain" : 1.0,
                            "mixToMono" : false,
                            "loudnessNormalization" : true,
                            "sourceFileOffset" : 0
                          },
                            "channelNumber" : "0,1",
                          "effects" : [

                          ],
                          "start" : 4116000000,
                          "duration" : 705600000,
                          "mediaStart" : 4116000000,
                          "mediaDuration" : 705600000,
                          "scalar" : 1,
                          "animationTracks" : {

                          }
                        }
,
                    "start" : 4116000000,
                    "duration" : 705600000,
                    "mediaStart" : 4116000000,
                    "mediaDuration" : 705600000,
                    "scalar" : 1,
                    "metadata" : {
                      "clipSpeedAttribute" : false,
                      "default-anchor0" : 0.0,
                      "default-anchor1" : 0.0,
                      "default-anchor2" : 0.0,
                      "default-height" : 1080.0,
                      "default-rotation0" : 0.0,
                      "default-rotation1" : 0.0,
                      "default-rotation2" : 0.0,
                      "default-scale0" : 1.0,
                      "default-scale1" : 1.0,
                      "default-scale2" : 1.0,
                      "default-shear0" : 0.0,
                      "default-shear1" : 0.0,
                      "default-shear2" : 0.0,
                      "default-translation0" : 0.0,
                      "default-translation1" : 0.0,
                      "default-translation2" : 0.0,
                      "default-width" : 1728.0
                    }
                  },
                  {
                    "id" : 21,
                    "_type" : "UnifiedMedia",
                    "video" : 
                        {
                          "id" : 22,
                          "_type" : "VMFile",
                          "src" : 1,
                          "trackNumber" : 0,
                          "attributes" : {
                            "ident" : "CCaller"
                          },
                          "parameters" : {
                            "sourceCrop0" : 0.0,
                            "sourceCrop1" : 0.0,
                            "sourceCrop2" : 0.0,
                            "sourceCrop3" : 0.0,
                            "geometryCrop0" : 0.0,
                            "geometryCrop1" : 0.0,
                            "geometryCrop2" : 0.0,
                            "geometryCrop3" : 0.0
                          },
                          "effects" : [

                          ],
                          "start" : 4821600000,
                          "duration" : 2657760000,
                          "mediaStart" : 4821600000,
                          "mediaDuration" : 2657760000,
                          "scalar" : 1,
                          "animationTracks" : {

                          }
                        },
                    "audio" : 
                        {
                          "id" : 23,
                          "_type" : "AMFile",
                          "src" : 1,
                          "trackNumber" : 1,
                          "attributes" : {
                            "ident" : "",
                            "gain" : 1.0,
                            "mixToMono" : false,
                            "loudnessNormalization" : true,
                            "sourceFileOffset" : 0
                          },
                            "channelNumber" : "0,1",
                          "effects" : [

                          ],
                          "start" : 4821600000,
                          "duration" : 2657760000,
                          "mediaStart" : 4821600000,
                          "mediaDuration" : 2657760000,
                          "scalar" : 1,
                          "animationTracks" : {

                          }
                        }
,
                    "start" : 4821600000,
                    "duration" : 2657760000,
                    "mediaStart" : 4821600000,
                    "mediaDuration" : 2657760000,
                    "scalar" : 1,
                    "metadata" : {
                      "clipSpeedAttribute" : false,
                      "default-height" : 1080.0,
                      "default-translation0" : 0.0,
                      "default-translation1" : 0.0,
                      "default-translation2" : 0.0,
                      "default-width" : 1728.0
                    }
                  },
                  {
                    "id" : 24,
                    "_type" : "UnifiedMedia",
                    "video" : 
                        {
                          "id" : 25,
                          "_type" : "VMFile",
                          "src" : 1,
                          "trackNumber" : 0,
                          "attributes" : {
                            "ident" : "CCaller"
                          },
                          "parameters" : {
                            "translation0" : 172.608695652174,
                            "translation1" : -291.304347826087,
                            "scale0" : 1.53945249597424,
                            "scale1" : 1.53945249597423,
                            "sourceCrop0" : 0.0,
                            "sourceCrop1" : 0.0,
                            "sourceCrop2" : 0.0,
                            "sourceCrop3" : 0.0,
                            "geometryCrop0" : 0.0,
                            "geometryCrop1" : 0.0,
                            "geometryCrop2" : 0.0,
                            "geometryCrop3" : 0.0
                          },
                          "effects" : [

                          ],
                          "start" : 7479360000,
                          "duration" : 1434720000,
                          "mediaStart" : 7479360000,
                          "mediaDuration" : 1434720000,
                          "scalar" : 1,
                          "animationTracks" : {

                          }
                        },
                    "audio" : 
                        {
                          "id" : 26,
                          "_type" : "AMFile",
                          "src" : 1,
                          "trackNumber" : 1,
                          "attributes" : {
                            "ident" : "",
                            "gain" : 1.0,
                            "mixToMono" : false,
                            "loudnessNormalization" : true,
                            "sourceFileOffset" : 0
                          },
                            "channelNumber" : "0,1",
                          "effects" : [

                          ],
                          "start" : 7479360000,
                          "duration" : 1434720000,
                          "mediaStart" : 7479360000,
                          "mediaDuration" : 1434720000,
                          "scalar" : 1,
                          "animationTracks" : {

                          }
                        }
,
                    "start" : 7479360000,
                    "duration" : 1434720000,
                    "mediaStart" : 7479360000,
                    "mediaDuration" : 1434720000,
                    "scalar" : 1,
                    "metadata" : {
                      "clipSpeedAttribute" : false,
                      "default-anchor0" : 0.0,
                      "default-anchor1" : 0.0,
                      "default-anchor2" : 0.0,
                      "default-height" : 1080.0,
                      "default-rotation0" : 0.0,
                      "default-rotation1" : 0.0,
                      "default-rotation2" : 0.0,
                      "default-scale0" : 1.0,
                      "default-scale1" : 1.0,
                      "default-scale2" : 1.0,
                      "default-shear0" : 0.0,
                      "default-shear1" : 0.0,
                      "default-shear2" : 0.0,
                      "default-translation0" : 0.0,
                      "default-translation1" : 0.0,
                      "default-translation2" : 0.0,
                      "default-width" : 1728.0
                    }
                  },
                  {
                    "id" : 27,
                    "_type" : "UnifiedMedia",
                    "video" : 
                        {
                          "id" : 28,
                          "_type" : "VMFile",
                          "src" : 1,
                          "trackNumber" : 0,
                          "attributes" : {
                            "ident" : "CCaller"
                          },
                          "parameters" : {
                            "sourceCrop0" : 0.0,
                            "sourceCrop1" : 0.0,
                            "sourceCrop2" : 0.0,
                            "sourceCrop3" : 0.0,
                            "geometryCrop0" : 0.0,
                            "geometryCrop1" : 0.0,
                            "geometryCrop2" : 0.0,
                            "geometryCrop3" : 0.0
                          },
                          "effects" : [

                          ],
                          "start" : 8914080000,
                          "duration" : 3904320000,
                          "mediaStart" : 8914080000,
                          "mediaDuration" : 3904320000,
                          "scalar" : 1,
                          "animationTracks" : {

                          }
                        },
                    "audio" : 
                        {
                          "id" : 29,
                          "_type" : "AMFile",
                          "src" : 1,
                          "trackNumber" : 1,
                          "attributes" : {
                            "ident" : "",
                            "gain" : 1.0,
                            "mixToMono" : false,
                            "loudnessNormalization" : true,
                            "sourceFileOffset" : 0
                          },
                            "channelNumber" : "0,1",
                          "effects" : [

                          ],
                          "start" : 8914080000,
                          "duration" : 3904320000,
                          "mediaStart" : 8914080000,
                          "mediaDuration" : 3904320000,
                          "scalar" : 1,
                          "animationTracks" : {

                          }
                        }
,
                    "start" : 8914080000,
                    "duration" : 3904320000,
                    "mediaStart" : 8914080000,
                    "mediaDuration" : 3904320000,
                    "scalar" : 1,
                    "metadata" : {
                      "clipSpeedAttribute" : false,
                      "default-height" : 1080.0,
                      "default-translation0" : 0.0,
                      "default-translation1" : 0.0,
                      "default-translation2" : 0.0,
                      "default-width" : 1728.0
                    }
                  },
                  {
                    "id" : 30,
                    "_type" : "UnifiedMedia",
                    "video" : 
                        {
                          "id" : 31,
                          "_type" : "VMFile",
                          "src" : 1,
                          "trackNumber" : 0,
                          "attributes" : {
                            "ident" : "CCaller"
                          },
                          "parameters" : {
                            "translation0" : 144.782608695653,
                            "translation1" : -219.565217391305,
                            "scale0" : 1.40660225442834,
                            "scale1" : 1.40660225442834,
                            "sourceCrop0" : 0.0,
                            "sourceCrop1" : 0.0,
                            "sourceCrop2" : 0.0,
                            "sourceCrop3" : 0.0,
                            "geometryCrop0" : 0.0,
                            "geometryCrop1" : 0.0,
                            "geometryCrop2" : 0.0,
                            "geometryCrop3" : 0.0
                          },
                          "effects" : [

                          ],
                          "start" : 12818400000,
                          "duration" : 4021920000,
                          "mediaStart" : 12818400000,
                          "mediaDuration" : 4021920000,
                          "scalar" : 1,
                          "animationTracks" : {

                          }
                        },
                    "audio" : 
                        {
                          "id" : 32,
                          "_type" : "AMFile",
                          "src" : 1,
                          "trackNumber" : 1,
                          "attributes" : {
                            "ident" : "",
                            "gain" : 1.0,
                            "mixToMono" : false,
                            "loudnessNormalization" : true,
                            "sourceFileOffset" : 0
                          },
                            "channelNumber" : "0,1",
                          "effects" : [

                          ],
                          "start" : 12818400000,
                          "duration" : 4021920000,
                          "mediaStart" : 12818400000,
                          "mediaDuration" : 4021920000,
                          "scalar" : 1,
                          "animationTracks" : {

                          }
                        }
,
                    "start" : 12818400000,
                    "duration" : 4021920000,
                    "mediaStart" : 12818400000,
                    "mediaDuration" : 4021920000,
                    "scalar" : 1,
                    "metadata" : {
                      "clipSpeedAttribute" : false,
                      "default-anchor0" : 0.0,
                      "default-anchor1" : 0.0,
                      "default-anchor2" : 0.0,
                      "default-height" : 1080.0,
                      "default-rotation0" : 0.0,
                      "default-rotation1" : 0.0,
                      "default-rotation2" : 0.0,
                      "default-scale0" : 1.0,
                      "default-scale1" : 1.0,
                      "default-scale2" : 1.0,
                      "default-shear0" : 0.0,
                      "default-shear1" : 0.0,
                      "default-shear2" : 0.0,
                      "default-translation0" : 0.0,
                      "default-translation1" : 0.0,
                      "default-translation2" : 0.0,
                      "default-width" : 1728.0
                    }
                  },
                  {
                    "id" : 33,
                    "_type" : "UnifiedMedia",
                    "video" : 
                        {
                          "id" : 34,
                          "_type" : "VMFile",
                          "src" : 1,
                          "trackNumber" : 0,
                          "attributes" : {
                            "ident" : "CCaller"
                          },
                          "parameters" : {
                            "sourceCrop0" : 0.0,
                            "sourceCrop1" : 0.0,
                            "sourceCrop2" : 0.0,
                            "sourceCrop3" : 0.0,
                            "geometryCrop0" : 0.0,
                            "geometryCrop1" : 0.0,
                            "geometryCrop2" : 0.0,
                            "geometryCrop3" : 0.0
                          },
                          "effects" : [

                          ],
                          "start" : 16840320000,
                          "duration" : 6914880000,
                          "mediaStart" : 16840320000,
                          "mediaDuration" : 6914880000,
                          "scalar" : 1,
                          "animationTracks" : {

                          }
                        },
                    "audio" : 
                        {
                          "id" : 35,
                          "_type" : "AMFile",
                          "src" : 1,
                          "trackNumber" : 1,
                          "attributes" : {
                            "ident" : "",
                            "gain" : 1.0,
                            "mixToMono" : false,
                            "loudnessNormalization" : true,
                            "sourceFileOffset" : 0
                          },
                            "channelNumber" : "0,1",
                          "effects" : [

                          ],
                          "start" : 16840320000,
                          "duration" : 6914880000,
                          "mediaStart" : 16840320000,
                          "mediaDuration" : 6914880000,
                          "scalar" : 1,
                          "animationTracks" : {

                          }
                        }
,
                    "start" : 16840320000,
                    "duration" : 6914880000,
                    "mediaStart" : 16840320000,
                    "mediaDuration" : 6914880000,
                    "scalar" : 1,
                    "metadata" : {
                      "clipSpeedAttribute" : false,
                      "default-height" : 1080.0,
                      "default-translation0" : 0.0,
                      "default-translation1" : 0.0,
                      "default-translation2" : 0.0,
                      "default-width" : 1728.0
                    }
                  },
                  {
                    "id" : 36,
                    "_type" : "UnifiedMedia",
                    "video" : 
                        {
                          "id" : 37,
                          "_type" : "VMFile",
                          "src" : 1,
                          "trackNumber" : 0,
                          "attributes" : {
                            "ident" : "CCaller"
                          },
                          "parameters" : {
                            "translation0" : 50.0000000000001,
                            "translation1" : -72.321428571429,
                            "scale0" : 1.34226190476191,
                            "scale1" : 1.34226190476191,
                            "sourceCrop0" : 0.0,
                            "sourceCrop1" : 0.0,
                            "sourceCrop2" : 0.0,
                            "sourceCrop3" : 0.0,
                            "geometryCrop0" : 0.0,
                            "geometryCrop1" : 0.0,
                            "geometryCrop2" : 0.0,
                            "geometryCrop3" : 0.0
                          },
                          "effects" : [

                          ],
                          "start" : 23755200000,
                          "duration" : 14253120000,
                          "mediaStart" : 23755200000,
                          "mediaDuration" : 14253120000,
                          "scalar" : 1,
                          "animationTracks" : {

                          }
                        },
                    "audio" : 
                        {
                          "id" : 38,
                          "_type" : "AMFile",
                          "src" : 1,
                          "trackNumber" : 1,
                          "attributes" : {
                            "ident" : "",
                            "gain" : 1.0,
                            "mixToMono" : false,
                            "loudnessNormalization" : true,
                            "sourceFileOffset" : 0
                          },
                            "channelNumber" : "0,1",
                          "effects" : [

                          ],
                          "start" : 23755200000,
                          "duration" : 14253120000,
                          "mediaStart" : 23755200000,
                          "mediaDuration" : 14253120000,
                          "scalar" : 1,
                          "animationTracks" : {

                          }
                        }
,
                    "start" : 23755200000,
                    "duration" : 14253120000,
                    "mediaStart" : 23755200000,
                    "mediaDuration" : 14253120000,
                    "scalar" : 1,
                    "metadata" : {
                      "clipSpeedAttribute" : false,
                      "default-anchor0" : 0.0,
                      "default-anchor1" : 0.0,
                      "default-anchor2" : 0.0,
                      "default-height" : 1080.0,
                      "default-rotation0" : 0.0,
                      "default-rotation1" : 0.0,
                      "default-rotation2" : 0.0,
                      "default-scale0" : 1.0,
                      "default-scale1" : 1.0,
                      "default-scale2" : 1.0,
                      "default-shear0" : 0.0,
                      "default-shear1" : 0.0,
                      "default-shear2" : 0.0,
                      "default-translation0" : 0.0,
                      "default-translation1" : 0.0,
                      "default-translation2" : 0.0,
                      "default-width" : 1728.0
                    }
                  },
                  {
                    "id" : 39,
                    "_type" : "UnifiedMedia",
                    "video" : 
                        {
                          "id" : 40,
                          "_type" : "VMFile",
                          "src" : 1,
                          "trackNumber" : 0,
                          "attributes" : {
                            "ident" : "CCaller"
                          },
                          "parameters" : {
                            "sourceCrop0" : 0.0,
                            "sourceCrop1" : 0.0,
                            "sourceCrop2" : 0.0,
                            "sourceCrop3" : 0.0,
                            "geometryCrop0" : 0.0,
                            "geometryCrop1" : 0.0,
                            "geometryCrop2" : 0.0,
                            "geometryCrop3" : 0.0
                          },
                          "effects" : [

                          ],
                          "start" : 38008320000,
                          "duration" : 4139520000,
                          "mediaStart" : 38008320000,
                          "mediaDuration" : 4139520000,
                          "scalar" : 1,
                          "animationTracks" : {

                          }
                        },
                    "audio" : 
                        {
                          "id" : 41,
                          "_type" : "AMFile",
                          "src" : 1,
                          "trackNumber" : 1,
                          "attributes" : {
                            "ident" : "",
                            "gain" : 1.0,
                            "mixToMono" : false,
                            "loudnessNormalization" : true,
                            "sourceFileOffset" : 0
                          },
                            "channelNumber" : "0,1",
                          "effects" : [

                          ],
                          "start" : 38008320000,
                          "duration" : 4139520000,
                          "mediaStart" : 38008320000,
                          "mediaDuration" : 4139520000,
                          "scalar" : 1,
                          "animationTracks" : {

                          }
                        }
,
                    "start" : 38008320000,
                    "duration" : 4139520000,
                    "mediaStart" : 38008320000,
                    "mediaDuration" : 4139520000,
                    "scalar" : 1,
                    "metadata" : {
                      "clipSpeedAttribute" : false,
                      "default-height" : 1080.0,
                      "default-translation0" : 0.0,
                      "default-translation1" : 0.0,
                      "default-translation2" : 0.0,
                      "default-width" : 1728.0
                    }
                  },
                  {
                    "id" : 42,
                    "_type" : "UnifiedMedia",
                    "video" : 
                        {
                          "id" : 43,
                          "_type" : "VMFile",
                          "src" : 1,
                          "trackNumber" : 0,
                          "attributes" : {
                            "ident" : "CCaller"
                          },
                          "parameters" : {
                            "translation0" : {
                              "type" : "double",
                              "defaultValue" : 640.400000000001,
                              "interp" : "eioe"
                            },
                            "translation1" : {
                              "type" : "double",
                              "defaultValue" : 172.25,
                              "interp" : "eioe"
                            },
                            "scale0" : {
                              "type" : "double",
                              "defaultValue" : 1.7412037037037,
                              "interp" : "eioe"
                            },
                            "scale1" : {
                              "type" : "double",
                              "defaultValue" : 1.7412037037037,
                              "interp" : "eioe"
                            },
                            "sourceCrop0" : {
                              "type" : "double",
                              "defaultValue" : 0.0,
                              "interp" : "eioe"
                            },
                            "sourceCrop1" : {
                              "type" : "double",
                              "defaultValue" : 0.0,
                              "interp" : "eioe"
                            },
                            "sourceCrop2" : {
                              "type" : "double",
                              "defaultValue" : 0.0,
                              "interp" : "eioe"
                            },
                            "sourceCrop3" : {
                              "type" : "double",
                              "defaultValue" : 0.0,
                              "interp" : "eioe"
                            },
                            "geometryCrop0" : {
                              "type" : "double",
                              "defaultValue" : 0.0,
                              "interp" : "eioe"
                            },
                            "geometryCrop1" : {
                              "type" : "double",
                              "defaultValue" : 0.0,
                              "interp" : "eioe"
                            },
                            "geometryCrop2" : {
                              "type" : "double",
                              "defaultValue" : 0.0,
                              "interp" : "eioe"
                            },
                            "geometryCrop3" : {
                              "type" : "double",
                              "defaultValue" : 0.0,
                              "interp" : "eioe"
                            }
                          },
                          "effects" : [

                          ],
                          "start" : 42147840000,
                          "duration" : 1317120000,
                          "mediaStart" : 42147840000,
                          "mediaDuration" : 1317120000,
                          "scalar" : 1,
                          "animationTracks" : {

                          }
                        },
                    "audio" : 
                        {
                          "id" : 44,
                          "_type" : "AMFile",
                          "src" : 1,
                          "trackNumber" : 1,
                          "attributes" : {
                            "ident" : "",
                            "gain" : 1.0,
                            "mixToMono" : false,
                            "loudnessNormalization" : true,
                            "sourceFileOffset" : 0
                          },
                            "channelNumber" : "0,1",
                          "effects" : [

                          ],
                          "start" : 42147840000,
                          "duration" : 1317120000,
                          "mediaStart" : 42147840000,
                          "mediaDuration" : 1317120000,
                          "scalar" : 1,
                          "animationTracks" : {

                          }
                        }
,
                    "start" : 42147840000,
                    "duration" : 1317120000,
                    "mediaStart" : 42147840000,
                    "mediaDuration" : 1317120000,
                    "scalar" : 1,
                    "metadata" : {
                      "clipSpeedAttribute" : false,
                      "default-anchor0" : 0.0,
                      "default-anchor1" : 0.0,
                      "default-anchor2" : 0.0,
                      "default-height" : 1080.0,
                      "default-rotation0" : 0.0,
                      "default-rotation1" : 0.0,
                      "default-rotation2" : 0.0,
                      "default-scale0" : 1.0,
                      "default-scale1" : 1.0,
                      "default-scale2" : 1.0,
                      "default-shear0" : 0.0,
                      "default-shear1" : 0.0,
                      "default-shear2" : 0.0,
                      "default-translation0" : 0.0,
                      "default-translation1" : 0.0,
                      "default-translation2" : 0.0,
                      "default-width" : 1728.0
                    }
                  },
                  {
                    "id" : 45,
                    "_type" : "UnifiedMedia",
                    "video" : 
                        {
                          "id" : 46,
                          "_type" : "VMFile",
                          "src" : 1,
                          "trackNumber" : 0,
                          "attributes" : {
                            "ident" : "CCaller"
                          },
                          "parameters" : {
                            "sourceCrop0" : {
                              "type" : "double",
                              "defaultValue" : 0.0,
                              "interp" : "eioe"
                            },
                            "sourceCrop1" : {
                              "type" : "double",
                              "defaultValue" : 0.0,
                              "interp" : "eioe"
                            },
                            "sourceCrop2" : {
                              "type" : "double",
                              "defaultValue" : 0.0,
                              "interp" : "eioe"
                            },
                            "sourceCrop3" : {
                              "type" : "double",
                              "defaultValue" : 0.0,
                              "interp" : "eioe"
                            },
                            "geometryCrop0" : {
                              "type" : "double",
                              "defaultValue" : 0.0,
                              "interp" : "eioe"
                            },
                            "geometryCrop1" : {
                              "type" : "double",
                              "defaultValue" : 0.0,
                              "interp" : "eioe"
                            },
                            "geometryCrop2" : {
                              "type" : "double",
                              "defaultValue" : 0.0,
                              "interp" : "eioe"
                            },
                            "geometryCrop3" : {
                              "type" : "double",
                              "defaultValue" : 0.0,
                              "interp" : "eioe"
                            }
                          },
                          "effects" : [

                          ],
                          "start" : 43464960000,
                          "duration" : 446880000,
                          "mediaStart" : 43464960000,
                          "mediaDuration" : 446880000,
                          "scalar" : 1,
                          "animationTracks" : {

                          }
                        },
                    "audio" : 
                        {
                          "id" : 47,
                          "_type" : "AMFile",
                          "src" : 1,
                          "trackNumber" : 1,
                          "attributes" : {
                            "ident" : "",
                            "gain" : 1.0,
                            "mixToMono" : false,
                            "loudnessNormalization" : true,
                            "sourceFileOffset" : 0
                          },
                            "channelNumber" : "0,1",
                          "effects" : [

                          ],
                          "start" : 43464960000,
                          "duration" : 446880000,
                          "mediaStart" : 43464960000,
                          "mediaDuration" : 446880000,
                          "scalar" : 1,
                          "animationTracks" : {

                          }
                        }
,
                    "start" : 43464960000,
                    "duration" : 446880000,
                    "mediaStart" : 43464960000,
                    "mediaDuration" : 446880000,
                    "scalar" : 1,
                    "metadata" : {
                      "clipSpeedAttribute" : false,
                      "default-anchor0" : 0.0,
                      "default-anchor1" : 0.0,
                      "default-anchor2" : 0.0,
                      "default-height" : 1080.0,
                      "default-rotation0" : 0.0,
                      "default-rotation1" : 0.0,
                      "default-rotation2" : 0.0,
                      "default-scale0" : 1.0,
                      "default-scale1" : 1.0,
                      "default-scale2" : 1.0,
                      "default-shear0" : 0.0,
                      "default-shear1" : 0.0,
                      "default-shear2" : 0.0,
                      "default-translation0" : 0.0,
                      "default-translation1" : 0.0,
                      "default-translation2" : 0.0,
                      "default-width" : 1728.0
                    }
                  },
                  {
                    "id" : 48,
                    "_type" : "UnifiedMedia",
                    "video" : 
                        {
                          "id" : 49,
                          "_type" : "VMFile",
                          "src" : 1,
                          "trackNumber" : 0,
                          "attributes" : {
                            "ident" : "CCaller"
                          },
                          "parameters" : {
                            "translation0" : {
                              "type" : "double",
                              "defaultValue" : -409.6,
                              "interp" : "eioe"
                            },
                            "translation1" : {
                              "type" : "double",
                              "defaultValue" : -152.0,
                              "interp" : "eioe"
                            },
                            "scale0" : {
                              "type" : "double",
                              "defaultValue" : 1.47407407407407,
                              "interp" : "eioe"
                            },
                            "scale1" : {
                              "type" : "double",
                              "defaultValue" : 1.47407407407407,
                              "interp" : "eioe"
                            },
                            "sourceCrop0" : {
                              "type" : "double",
                              "defaultValue" : 0.0,
                              "interp" : "eioe"
                            },
                            "sourceCrop1" : {
                              "type" : "double",
                              "defaultValue" : 0.0,
                              "interp" : "eioe"
                            },
                            "sourceCrop2" : {
                              "type" : "double",
                              "defaultValue" : 0.0,
                              "interp" : "eioe"
                            },
                            "sourceCrop3" : {
                              "type" : "double",
                              "defaultValue" : 0.0,
                              "interp" : "eioe"
                            },
                            "geometryCrop0" : {
                              "type" : "double",
                              "defaultValue" : 0.0,
                              "interp" : "eioe"
                            },
                            "geometryCrop1" : {
                              "type" : "double",
                              "defaultValue" : 0.0,
                              "interp" : "eioe"
                            },
                            "geometryCrop2" : {
                              "type" : "double",
                              "defaultValue" : 0.0,
                              "interp" : "eioe"
                            },
                            "geometryCrop3" : {
                              "type" : "double",
                              "defaultValue" : 0.0,
                              "interp" : "eioe"
                            }
                          },
                          "effects" : [

                          ],
                          "start" : 43911840000,
                          "duration" : 1881600000,
                          "mediaStart" : 43911840000,
                          "mediaDuration" : 1881600000,
                          "scalar" : 1,
                          "animationTracks" : {

                          }
                        },
                    "audio" : 
                        {
                          "id" : 50,
                          "_type" : "AMFile",
                          "src" : 1,
                          "trackNumber" : 1,
                          "attributes" : {
                            "ident" : "",
                            "gain" : 1.0,
                            "mixToMono" : false,
                            "loudnessNormalization" : true,
                            "sourceFileOffset" : 0
                          },
                            "channelNumber" : "0,1",
                          "effects" : [

                          ],
                          "start" : 43911840000,
                          "duration" : 1881600000,
                          "mediaStart" : 43911840000,
                          "mediaDuration" : 1881600000,
                          "scalar" : 1,
                          "animationTracks" : {

                          }
                        }
,
                    "start" : 43911840000,
                    "duration" : 1881600000,
                    "mediaStart" : 43911840000,
                    "mediaDuration" : 1881600000,
                    "scalar" : 1,
                    "metadata" : {
                      "clipSpeedAttribute" : false,
                      "default-anchor0" : 0.0,
                      "default-anchor1" : 0.0,
                      "default-anchor2" : 0.0,
                      "default-height" : 1080.0,
                      "default-rotation0" : 0.0,
                      "default-rotation1" : 0.0,
                      "default-rotation2" : 0.0,
                      "default-scale0" : 1.0,
                      "default-scale1" : 1.0,
                      "default-scale2" : 1.0,
                      "default-shear0" : 0.0,
                      "default-shear1" : 0.0,
                      "default-shear2" : 0.0,
                      "default-translation0" : 0.0,
                      "default-translation1" : 0.0,
                      "default-translation2" : 0.0,
                      "default-width" : 1728.0
                    }
                  },
                  {
                    "id" : 51,
                    "_type" : "UnifiedMedia",
                    "video" : 
                        {
                          "id" : 52,
                          "_type" : "VMFile",
                          "src" : 1,
                          "trackNumber" : 0,
                          "attributes" : {
                            "ident" : "CCaller"
                          },
                          "parameters" : {
                            "sourceCrop0" : {
                              "type" : "double",
                              "defaultValue" : 0.0,
                              "interp" : "eioe"
                            },
                            "sourceCrop1" : {
                              "type" : "double",
                              "defaultValue" : 0.0,
                              "interp" : "eioe"
                            },
                            "sourceCrop2" : {
                              "type" : "double",
                              "defaultValue" : 0.0,
                              "interp" : "eioe"
                            },
                            "sourceCrop3" : {
                              "type" : "double",
                              "defaultValue" : 0.0,
                              "interp" : "eioe"
                            },
                            "geometryCrop0" : {
                              "type" : "double",
                              "defaultValue" : 0.0,
                              "interp" : "eioe"
                            },
                            "geometryCrop1" : {
                              "type" : "double",
                              "defaultValue" : 0.0,
                              "interp" : "eioe"
                            },
                            "geometryCrop2" : {
                              "type" : "double",
                              "defaultValue" : 0.0,
                              "interp" : "eioe"
                            },
                            "geometryCrop3" : {
                              "type" : "double",
                              "defaultValue" : 0.0,
                              "interp" : "eioe"
                            }
                          },
                          "effects" : [

                          ],
                          "start" : 45793440000,
                          "duration" : 3880800000,
                          "mediaStart" : 45793440000,
                          "mediaDuration" : 3880800000,
                          "scalar" : 1,
                          "animationTracks" : {

                          }
                        },
                    "audio" : 
                        {
                          "id" : 53,
                          "_type" : "AMFile",
                          "src" : 1,
                          "trackNumber" : 1,
                          "attributes" : {
                            "ident" : "",
                            "gain" : 1.0,
                            "mixToMono" : false,
                            "loudnessNormalization" : true,
                            "sourceFileOffset" : 0
                          },
                            "channelNumber" : "0,1",
                          "effects" : [

                          ],
                          "start" : 45793440000,
                          "duration" : 3880800000,
                          "mediaStart" : 45793440000,
                          "mediaDuration" : 3880800000,
                          "scalar" : 1,
                          "animationTracks" : {

                          }
                        }
,
                    "start" : 45793440000,
                    "duration" : 3880800000,
                    "mediaStart" : 45793440000,
                    "mediaDuration" : 3880800000,
                    "scalar" : 1,
                    "metadata" : {
                      "clipSpeedAttribute" : false,
                      "default-anchor0" : 0.0,
                      "default-anchor1" : 0.0,
                      "default-anchor2" : 0.0,
                      "default-height" : 1080.0,
                      "default-rotation0" : 0.0,
                      "default-rotation1" : 0.0,
                      "default-rotation2" : 0.0,
                      "default-scale0" : 1.0,
                      "default-scale1" : 1.0,
                      "default-scale2" : 1.0,
                      "default-shear0" : 0.0,
                      "default-shear1" : 0.0,
                      "default-shear2" : 0.0,
                      "default-translation0" : 0.0,
                      "default-translation1" : 0.0,
                      "default-translation2" : 0.0,
                      "default-width" : 1728.0
                    }
                  }
                ]
              },
              {
                "trackIndex" : 1,
                "medias" : [
                  {
                    "id" : 54,
                    "_type" : "Callout",
                    "def" : {
                        "kind" : "remix",
                        "shape" : "text",
                        "style" : "urban",
                        "enable-ligatures" : 1.0,
                        "height" : 250.0,
                        "line-spacing" : 0.0,
                        "width" : 1279.21739130435,
                        "word-wrap" : 1.0,
                        "horizontal-alignment" : "center",
                        "resize-behavior" : "resizeText",
                        "text" : "利用 C Caller集成手写 C 代码",
                        "vertical-alignment" : "center",
                        "font" : {
                          "color-blue" : 1.0,
                          "color-green" : 1.0,
                          "color-red" : 1.0,
                          "size" : 96.0,
                          "tracking" : 0.0,
                          "name" : "Dosis",
                          "weight" : "Semi Bold"
                        },
                        "textAttributes" : {
                          "type" : "textAttributeList",
                          "keyframes" : [
                            {
                              "endTime" : 0,
                              "time" : 0,
                              "value" : [{"name":"underline","rangeEnd":36,"rangeStart":0,"value":0,"valueType":"int"},{"name":"strikethrough","rangeEnd":36,"rangeStart":0,"value":0,"valueType":"int"},{"name":"fontSize","rangeEnd":36,"rangeStart":0,"value":96.0,"valueType":"double"},{"name":"fontItalic","rangeEnd":36,"rangeStart":0,"value":0,"valueType":"int"},{"name":"fgColor","rangeEnd":36,"rangeStart":0,"value":"(74,74,137,255)","valueType":"color"},{"name":"kerning","rangeEnd":36,"rangeStart":0,"value":0.0,"valueType":"double"},{"name":"fontName","rangeEnd":36,"rangeStart":0,"value":"DengXian","valueType":"string"},{"name":"fontWeight","rangeEnd":36,"rangeStart":0,"value":400,"valueType":"int"}],
                              "duration" : 0
                            }
                          ]
                        }
                    },
                    "attributes" : {
                      "ident" : "",
                      "autoRotateText" : true
                    },
                    "parameters" : {
                      "translation1" : -291.770186335404,
                      "sourceCrop0" : 0.0,
                      "sourceCrop1" : 0.0,
                      "sourceCrop2" : 0.0,
                      "sourceCrop3" : 0.0,
                      "geometryCrop0" : 0.0,
                      "geometryCrop1" : 0.0,
                      "geometryCrop2" : 0.0,
                      "geometryCrop3" : 0.0
                    },
                    "effects" : [

                    ],
                    "start" : 0,
                    "duration" : 1764000000,
                    "mediaStart" : 0,
                    "mediaDuration" : 1764000000,
                    "scalar" : 1,
                    "metadata" : {
                      "clipSpeedAttribute" : false,
                      "default-HAlign" : "center",
                      "default-LineSpace" : 0.0,
                      "default-VAlign" : "center",
                      "default-anchor0" : 0.0,
                      "default-anchor1" : 0.0,
                      "default-anchor2" : 0.0,
                      "default-height" : 250.0,
                      "default-rotation0" : 0.0,
                      "default-rotation1" : 0.0,
                      "default-rotation2" : 0.0,
                      "default-scale0" : 1.0,
                      "default-scale1" : 1.0,
                      "default-scale2" : 1.0,
                      "default-shear0" : 0.0,
                      "default-shear1" : 0.0,
                      "default-shear2" : 0.0,
                      "default-translation0" : 0.0,
                      "default-translation1" : 0.0,
                      "default-translation2" : 0.0,
                      "default-width" : 400.0
                    },
                    "animationTracks" : {

                    }
                  },
                  {
                    "id" : 55,
                    "_type" : "Callout",
                    "def" : {
                        "kind" : "remix",
                        "shape" : "shape-rectangle",
                        "style" : "urban",
                        "fill-color-blue" : 0.0745098039215686,
                        "fill-color-green" : 0.0745098039215686,
                        "fill-color-opacity" : 0.0,
                        "fill-color-red" : 0.443137254901961,
                        "height" : 156.086956521739,
                        "stroke-color-blue" : 0.0745098039215686,
                        "stroke-color-green" : 0.0745098039215686,
                        "stroke-color-opacity" : 1.0,
                        "stroke-color-red" : 0.443137254901961,
                        "stroke-width" : 6.0,
                        "width" : 481.826086956522,
                        "fill-style" : "solid",
                        "stroke-style" : "solid"
                    },
                    "attributes" : {
                      "ident" : "",
                      "autoRotateText" : true
                    },
                    "parameters" : {
                      "translation0" : -623.086956521739,
                      "translation1" : 214.130434782609,
                      "sourceCrop0" : 0.0,
                      "sourceCrop1" : 0.0,
                      "sourceCrop2" : 0.0,
                      "sourceCrop3" : 0.0,
                      "geometryCrop0" : 0.0,
                      "geometryCrop1" : 0.0,
                      "geometryCrop2" : 0.0,
                      "geometryCrop3" : 0.0
                    },
                    "effects" : [

                    ],
                    "start" : 3057600000,
                    "duration" : 329280000,
                    "mediaStart" : 0,
                    "mediaDuration" : 329280000,
                    "scalar" : 1,
                    "metadata" : {
                      "clipSpeedAttribute" : false,
                      "default-anchor0" : 0.0,
                      "default-anchor1" : 0.0,
                      "default-anchor2" : 0.0,
                      "default-fill-color-blue" : 0.0,
                      "default-fill-color-green" : 0.0,
                      "default-fill-color-red" : 0.0,
                      "default-height" : 186.0,
                      "default-rotation0" : 0.0,
                      "default-rotation1" : 0.0,
                      "default-rotation2" : 0.0,
                      "default-scale0" : 1.0,
                      "default-scale1" : 1.0,
                      "default-scale2" : 1.0,
                      "default-shear0" : 0.0,
                      "default-shear1" : 0.0,
                      "default-shear2" : 0.0,
                      "default-stroke-color-blue" : 1.0,
                      "default-stroke-color-green" : 1.0,
                      "default-stroke-color-red" : 1.0,
                      "default-translation0" : 0.0,
                      "default-translation1" : 0.0,
                      "default-translation2" : 0.0,
                      "default-width" : 240.0
                    },
                    "animationTracks" : {

                    }
                  },
                  {
                    "id" : 56,
                    "_type" : "Callout",
                    "def" : {
                        "kind" : "remix",
                        "shape" : "text-arrow",
                        "style" : "urban",
                        "enable-ligatures" : 1.0,
                        "fill-color-blue" : 0.129411764705882,
                        "fill-color-green" : 0.741176470588235,
                        "fill-color-opacity" : 1.0,
                        "fill-color-red" : 0.956862745098039,
                        "height" : 113.597610117887,
                        "line-spacing" : 0.0,
                        "stroke-color-blue" : 1.0,
                        "stroke-color-green" : 1.0,
                        "stroke-color-opacity" : 1.0,
                        "stroke-color-red" : 1.0,
                        "stroke-width" : 0.0,
                        "tail-x" : 0.0,
                        "tail-y" : -20.0,
                        "width" : 242.264833917283,
                        "word-wrap" : 1.0,
                        "fill-style" : "solid",
                        "horizontal-alignment" : "center",
                        "resize-behavior" : "resizeText",
                        "stroke-style" : "solid",
                        "text" : "源码 .c",
                        "vertical-alignment" : "center",
                        "font" : {
                          "color-blue" : 1.0,
                          "color-green" : 1.0,
                          "color-red" : 1.0,
                          "size" : 70.0,
                          "tracking" : 0.0,
                          "name" : "Dosis",
                          "weight" : "Semi Bold"
                        },
                        "textAttributes" : {
                          "type" : "textAttributeList",
                          "keyframes" : [
                            {
                              "endTime" : 0,
                              "time" : 0,
                              "value" : [{"name":"underline","rangeEnd":9,"rangeStart":0,"value":0,"valueType":"int"},{"name":"fontWeight","rangeEnd":9,"rangeStart":0,"value":400,"valueType":"int"},{"name":"fontItalic","rangeEnd":9,"rangeStart":0,"value":0,"valueType":"int"},{"name":"strikethrough","rangeEnd":9,"rangeStart":0,"value":0,"valueType":"int"},{"name":"kerning","rangeEnd":9,"rangeStart":0,"value":0.0,"valueType":"double"},{"name":"fontSize","rangeEnd":9,"rangeStart":0,"value":60.0,"valueType":"double"},{"name":"fontName","rangeEnd":7,"rangeStart":0,"value":"Microsoft YaHei","valueType":"string"},{"name":"fontName","rangeEnd":9,"rangeStart":7,"value":"Dosis","valueType":"string"},{"name":"fgColor","rangeEnd":9,"rangeStart":0,"value":"(255,255,255,255)","valueType":"color"}],
                              "duration" : 0
                            }
                          ]
                        }
                    },
                    "attributes" : {
                      "ident" : "",
                      "autoRotateText" : true
                    },
                    "parameters" : {
                      "translation0" : 101.42702599847,
                      "translation1" : -54.6365053131036,
                      "rotation2" : 2.8696781508025,
                      "shear0" : 1.15860544696281e-16,
                      "sourceCrop0" : 0.0,
                      "sourceCrop1" : 0.0,
                      "sourceCrop2" : 0.0,
                      "sourceCrop3" : 0.0,
                      "geometryCrop0" : 0.0,
                      "geometryCrop1" : 0.0,
                      "geometryCrop2" : 0.0,
                      "geometryCrop3" : 0.0
                    },
                    "effects" : [

                    ],
                    "start" : 3386880000,
                    "duration" : 729120000,
                    "mediaStart" : 0,
                    "mediaDuration" : 729120000,
                    "scalar" : 1,
                    "metadata" : {
                      "clipSpeedAttribute" : false,
                      "default-HAlign" : "center",
                      "default-LineSpace" : 0.0,
                      "default-VAlign" : "center",
                      "default-anchor0" : 0.0,
                      "default-anchor1" : 0.0,
                      "default-anchor2" : 0.0,
                      "default-height" : 314.0,
                      "default-rotation0" : 0.0,
                      "default-rotation1" : 0.0,
                      "default-rotation2" : 0.0,
                      "default-scale0" : 1.0,
                      "default-scale1" : 1.0,
                      "default-scale2" : 1.0,
                      "default-shear0" : 0.0,
                      "default-shear1" : 0.0,
                      "default-shear2" : 0.0,
                      "default-translation0" : 0.0,
                      "default-translation1" : 0.0,
                      "default-translation2" : 0.0,
                      "default-width" : 650.0
                    },
                    "animationTracks" : {

                    }
                  },
                  {
                    "id" : 57,
                    "_type" : "Callout",
                    "def" : {
                        "kind" : "remix",
                        "shape" : "text-arrow",
                        "style" : "urban",
                        "enable-ligatures" : 1.0,
                        "fill-color-blue" : 0.129411764705882,
                        "fill-color-green" : 0.741176470588235,
                        "fill-color-opacity" : 1.0,
                        "fill-color-red" : 0.956862745098039,
                        "height" : 113.597610117887,
                        "line-spacing" : 0.0,
                        "stroke-color-blue" : 1.0,
                        "stroke-color-green" : 1.0,
                        "stroke-color-opacity" : 1.0,
                        "stroke-color-red" : 1.0,
                        "stroke-width" : 0.0,
                        "tail-x" : 0.0,
                        "tail-y" : -20.0,
                        "width" : 242.264833917283,
                        "word-wrap" : 1.0,
                        "fill-style" : "solid",
                        "horizontal-alignment" : "center",
                        "resize-behavior" : "resizeText",
                        "stroke-style" : "solid",
                        "text" : "头文件 .h",
                        "vertical-alignment" : "center",
                        "font" : {
                          "color-blue" : 1.0,
                          "color-green" : 1.0,
                          "color-red" : 1.0,
                          "size" : 70.0,
                          "tracking" : 0.0,
                          "name" : "Dosis",
                          "weight" : "Semi Bold"
                        },
                        "textAttributes" : {
                          "type" : "textAttributeList",
                          "keyframes" : [
                            {
                              "endTime" : 0,
                              "time" : 0,
                              "value" : [{"name":"fontName","rangeEnd":10,"rangeStart":0,"value":"Microsoft YaHei","valueType":"string"},{"name":"strikethrough","rangeEnd":12,"rangeStart":0,"value":0,"valueType":"int"},{"name":"fontWeight","rangeEnd":12,"rangeStart":0,"value":400,"valueType":"int"},{"name":"fontName","rangeEnd":12,"rangeStart":10,"value":"Dosis","valueType":"string"},{"name":"fgColor","rangeEnd":12,"rangeStart":0,"value":"(255,255,255,255)","valueType":"color"},{"name":"fontSize","rangeEnd":12,"rangeStart":0,"value":60.0,"valueType":"double"},{"name":"kerning","rangeEnd":12,"rangeStart":0,"value":0.0,"valueType":"double"},{"name":"underline","rangeEnd":12,"rangeStart":0,"value":0,"valueType":"int"},{"name":"fontItalic","rangeEnd":12,"rangeStart":0,"value":0,"valueType":"int"}],
                              "duration" : 0
                            }
                          ]
                        }
                    },
                    "attributes" : {
                      "ident" : "",
                      "autoRotateText" : true
                    },
                    "parameters" : {
                      "translation0" : 131.936627821081,
                      "translation1" : -13.4830072438225,
                      "rotation2" : 2.8696781508025,
                      "shear0" : 1.15860544696281e-16,
                      "sourceCrop0" : 0.0,
                      "sourceCrop1" : 0.0,
                      "sourceCrop2" : 0.0,
                      "sourceCrop3" : 0.0,
                      "geometryCrop0" : 0.0,
                      "geometryCrop1" : 0.0,
                      "geometryCrop2" : 0.0,
                      "geometryCrop3" : 0.0
                    },
                    "effects" : [

                    ],
                    "start" : 4116000000,
                    "duration" : 729120000,
                    "mediaStart" : 0,
                    "mediaDuration" : 729120000,
                    "scalar" : 1,
                    "metadata" : {
                      "clipSpeedAttribute" : false,
                      "default-HAlign" : "center",
                      "default-LineSpace" : 0.0,
                      "default-VAlign" : "center",
                      "default-anchor0" : 0.0,
                      "default-anchor1" : 0.0,
                      "default-anchor2" : 0.0,
                      "default-height" : 314.0,
                      "default-rotation0" : 0.0,
                      "default-rotation1" : 0.0,
                      "default-rotation2" : 0.0,
                      "default-scale0" : 1.0,
                      "default-scale1" : 1.0,
                      "default-scale2" : 1.0,
                      "default-shear0" : 0.0,
                      "default-shear1" : 0.0,
                      "default-shear2" : 0.0,
                      "default-translation0" : 0.0,
                      "default-translation1" : 0.0,
                      "default-translation2" : 0.0,
                      "default-width" : 650.0
                    },
                    "animationTracks" : {

                    }
                  },
                  {
                    "id" : 58,
                    "_type" : "Callout",
                    "def" : {
                        "kind" : "remix",
                        "shape" : "shape-rectangle",
                        "style" : "urban",
                        "fill-color-blue" : 0.0745098039215686,
                        "fill-color-green" : 0.0745098039215686,
                        "fill-color-opacity" : 0.0,
                        "fill-color-red" : 0.443137254901961,
                        "height" : 156.086956521739,
                        "stroke-color-blue" : 0.0745098039215686,
                        "stroke-color-green" : 0.0745098039215686,
                        "stroke-color-opacity" : 1.0,
                        "stroke-color-red" : 0.443137254901961,
                        "stroke-width" : 6.0,
                        "width" : 379.217391304348,
                        "fill-style" : "solid",
                        "stroke-style" : "solid"
                    },
                    "attributes" : {
                      "ident" : "",
                      "autoRotateText" : true
                    },
                    "parameters" : {
                      "translation0" : -189.608695652174,
                      "translation1" : 220.652173913043,
                      "sourceCrop0" : 0.0,
                      "sourceCrop1" : 0.0,
                      "sourceCrop2" : 0.0,
                      "sourceCrop3" : 0.0,
                      "geometryCrop0" : 0.0,
                      "geometryCrop1" : 0.0,
                      "geometryCrop2" : 0.0,
                      "geometryCrop3" : 0.0
                    },
                    "effects" : [

                    ],
                    "start" : 7244160000,
                    "duration" : 235200000,
                    "mediaStart" : 0,
                    "mediaDuration" : 235200000,
                    "scalar" : 1,
                    "metadata" : {
                      "clipSpeedAttribute" : false,
                      "default-anchor0" : 0.0,
                      "default-anchor1" : 0.0,
                      "default-anchor2" : 0.0,
                      "default-fill-color-blue" : 0.0,
                      "default-fill-color-green" : 0.0,
                      "default-fill-color-red" : 0.0,
                      "default-height" : 186.0,
                      "default-rotation0" : 0.0,
                      "default-rotation1" : 0.0,
                      "default-rotation2" : 0.0,
                      "default-scale0" : 1.0,
                      "default-scale1" : 1.0,
                      "default-scale2" : 1.0,
                      "default-shear0" : 0.0,
                      "default-shear1" : 0.0,
                      "default-shear2" : 0.0,
                      "default-stroke-color-blue" : 1.0,
                      "default-stroke-color-green" : 1.0,
                      "default-stroke-color-red" : 1.0,
                      "default-translation0" : 0.0,
                      "default-translation1" : 0.0,
                      "default-translation2" : 0.0,
                      "default-width" : 240.0
                    },
                    "animationTracks" : {

                    }
                  },
                  {
                    "id" : 59,
                    "_type" : "Callout",
                    "def" : {
                        "kind" : "remix",
                        "shape" : "shape-rectangle",
                        "style" : "urban",
                        "fill-color-blue" : 0.0745098039215686,
                        "fill-color-green" : 0.0745098039215686,
                        "fill-color-opacity" : 0.0,
                        "fill-color-red" : 0.443137254901961,
                        "height" : 186.521739130434,
                        "stroke-color-blue" : 0.0745098039215686,
                        "stroke-color-green" : 0.0745098039215686,
                        "stroke-color-opacity" : 1.0,
                        "stroke-color-red" : 0.443137254901961,
                        "stroke-width" : 6.0,
                        "width" : 379.217391304347,
                        "fill-style" : "solid",
                        "stroke-style" : "solid"
                    },
                    "attributes" : {
                      "ident" : "",
                      "autoRotateText" : true
                    },
                    "parameters" : {
                      "translation0" : -189.608695652174,
                      "translation1" : 205.434782608696,
                      "sourceCrop0" : 0.0,
                      "sourceCrop1" : 0.0,
                      "sourceCrop2" : 0.0,
                      "sourceCrop3" : 0.0,
                      "geometryCrop0" : 0.0,
                      "geometryCrop1" : 0.0,
                      "geometryCrop2" : 0.0,
                      "geometryCrop3" : 0.0
                    },
                    "effects" : [

                    ],
                    "start" : 12583200000,
                    "duration" : 235200000,
                    "mediaStart" : 0,
                    "mediaDuration" : 235200000,
                    "scalar" : 1,
                    "metadata" : {
                      "clipSpeedAttribute" : false,
                      "default-anchor0" : 0.0,
                      "default-anchor1" : 0.0,
                      "default-anchor2" : 0.0,
                      "default-fill-color-blue" : 0.0,
                      "default-fill-color-green" : 0.0,
                      "default-fill-color-red" : 0.0,
                      "default-height" : 186.0,
                      "default-rotation0" : 0.0,
                      "default-rotation1" : 0.0,
                      "default-rotation2" : 0.0,
                      "default-scale0" : 1.0,
                      "default-scale1" : 1.0,
                      "default-scale2" : 1.0,
                      "default-shear0" : 0.0,
                      "default-shear1" : 0.0,
                      "default-shear2" : 0.0,
                      "default-stroke-color-blue" : 1.0,
                      "default-stroke-color-green" : 1.0,
                      "default-stroke-color-red" : 1.0,
                      "default-translation0" : 0.0,
                      "default-translation1" : 0.0,
                      "default-translation2" : 0.0,
                      "default-width" : 240.0
                    },
                    "animationTracks" : {

                    }
                  },
                  {
                    "id" : 60,
                    "_type" : "Callout",
                    "def" : {
                        "kind" : "remix",
                        "shape" : "shape-rectangle",
                        "style" : "urban",
                        "fill-color-blue" : 0.0745098039215686,
                        "fill-color-green" : 0.0745098039215686,
                        "fill-color-opacity" : 0.0,
                        "fill-color-red" : 0.443137254901961,
                        "height" : 206.970397757665,
                        "stroke-color-blue" : 0.0745098039215686,
                        "stroke-color-green" : 0.0745098039215686,
                        "stroke-color-opacity" : 1.0,
                        "stroke-color-red" : 0.443137254901961,
                        "stroke-width" : 6.0,
                        "width" : 206.539829563293,
                        "fill-style" : "solid",
                        "stroke-style" : "solid"
                    },
                    "attributes" : {
                      "ident" : "",
                      "autoRotateText" : true
                    },
                    "parameters" : {
                      "translation0" : 723.086956521739,
                      "translation1" : 104.260869565217,
                      "scale0" : 0.440126668651765,
                      "scale1" : 0.440126668651765,
                      "sourceCrop0" : 0.0,
                      "sourceCrop1" : 0.0,
                      "sourceCrop2" : 0.0,
                      "sourceCrop3" : 0.0,
                      "geometryCrop0" : 0.0,
                      "geometryCrop1" : 0.0,
                      "geometryCrop2" : 0.0,
                      "geometryCrop3" : 0.0
                    },
                    "effects" : [

                    ],
                    "start" : 21050400000,
                    "duration" : 235200000,
                    "mediaStart" : 0,
                    "mediaDuration" : 235200000,
                    "scalar" : 1,
                    "metadata" : {
                      "clipSpeedAttribute" : false,
                      "default-anchor0" : 0.0,
                      "default-anchor1" : 0.0,
                      "default-anchor2" : 0.0,
                      "default-fill-color-blue" : 0.0,
                      "default-fill-color-green" : 0.0,
                      "default-fill-color-red" : 0.0,
                      "default-height" : 186.0,
                      "default-rotation0" : 0.0,
                      "default-rotation1" : 0.0,
                      "default-rotation2" : 0.0,
                      "default-scale0" : 1.0,
                      "default-scale1" : 1.0,
                      "default-scale2" : 1.0,
                      "default-shear0" : 0.0,
                      "default-shear1" : 0.0,
                      "default-shear2" : 0.0,
                      "default-stroke-color-blue" : 1.0,
                      "default-stroke-color-green" : 1.0,
                      "default-stroke-color-red" : 1.0,
                      "default-translation0" : 0.0,
                      "default-translation1" : 0.0,
                      "default-translation2" : 0.0,
                      "default-width" : 240.0
                    },
                    "animationTracks" : {

                    }
                  },
                  {
                    "id" : 61,
                    "_type" : "Callout",
                    "def" : {
                        "kind" : "remix",
                        "shape" : "text-arrow2",
                        "style" : "urban",
                        "enable-ligatures" : 1.0,
                        "fill-color-blue" : 0.384313725490196,
                        "fill-color-green" : 0.505882352941176,
                        "fill-color-opacity" : 1.0,
                        "fill-color-red" : 0.96078431372549,
                        "height" : 150.0,
                        "line-spacing" : 0.0,
                        "stroke-color-blue" : 1.0,
                        "stroke-color-green" : 1.0,
                        "stroke-color-opacity" : 1.0,
                        "stroke-color-red" : 1.0,
                        "stroke-width" : 0.0,
                        "tail-x" : 0.0,
                        "tail-y" : -20.0,
                        "width" : 350.0,
                        "word-wrap" : 1.0,
                        "fill-style" : "solid",
                        "horizontal-alignment" : "center",
                        "resize-behavior" : "resizeText",
                        "stroke-style" : "solid",
                        "text" : "找到\rSimulation Target",
                        "vertical-alignment" : "center",
                        "font" : {
                          "color-blue" : 1.0,
                          "color-green" : 1.0,
                          "color-red" : 1.0,
                          "size" : 70.0,
                          "tracking" : 0.0,
                          "name" : "Dosis",
                          "weight" : "Semi Bold"
                        },
                        "textAttributes" : {
                          "type" : "textAttributeList",
                          "keyframes" : [
                            {
                              "endTime" : 0,
                              "time" : 0,
                              "value" : [{"name":"underline","rangeEnd":24,"rangeStart":0,"value":0,"valueType":"int"},{"name":"fontItalic","rangeEnd":24,"rangeStart":0,"value":0,"valueType":"int"},{"name":"kerning","rangeEnd":24,"rangeStart":0,"value":0.0,"valueType":"double"},{"name":"fontWeight","rangeEnd":24,"rangeStart":0,"value":400,"valueType":"int"},{"name":"fgColor","rangeEnd":24,"rangeStart":0,"value":"(255,255,255,255)","valueType":"color"},{"name":"fontName","rangeEnd":7,"rangeStart":0,"value":"Microsoft YaHei","valueType":"string"},{"name":"fontName","rangeEnd":24,"rangeStart":7,"value":"Dosis","valueType":"string"},{"name":"strikethrough","rangeEnd":24,"rangeStart":0,"value":0,"valueType":"int"},{"name":"fontSize","rangeEnd":24,"rangeStart":0,"value":70.0,"valueType":"double"}],
                              "duration" : 0
                            }
                          ]
                        }
                    },
                    "attributes" : {
                      "ident" : "",
                      "autoRotateText" : true
                    },
                    "parameters" : {
                      "translation0" : -175.0,
                      "translation1" : 141.304347826087,
                      "rotation2" : 3.14159265358979,
                      "shear0" : -2.46519032881566e-32,
                      "sourceCrop0" : 0.0,
                      "sourceCrop1" : 0.0,
                      "sourceCrop2" : 0.0,
                      "sourceCrop3" : 0.0,
                      "geometryCrop0" : 0.0,
                      "geometryCrop1" : 0.0,
                      "geometryCrop2" : 0.0,
                      "geometryCrop3" : 0.0
                    },
                    "effects" : [

                    ],
                    "start" : 23755200000,
                    "duration" : 1928640000,
                    "mediaStart" : 0,
                    "mediaDuration" : 1928640000,
                    "scalar" : 1,
                    "metadata" : {
                      "clipSpeedAttribute" : false,
                      "default-HAlign" : "center",
                      "default-LineSpace" : 0.0,
                      "default-VAlign" : "center",
                      "default-anchor0" : 0.0,
                      "default-anchor1" : 0.0,
                      "default-anchor2" : 0.0,
                      "default-height" : 314.0,
                      "default-rotation0" : 0.0,
                      "default-rotation1" : 0.0,
                      "default-rotation2" : 0.0,
                      "default-scale0" : 1.0,
                      "default-scale1" : 1.0,
                      "default-scale2" : 1.0,
                      "default-shear0" : 0.0,
                      "default-shear1" : 0.0,
                      "default-shear2" : 0.0,
                      "default-text-attributes" : null,
                      "default-translation0" : 0.0,
                      "default-translation1" : 0.0,
                      "default-translation2" : 0.0,
                      "default-width" : 488.0
                    },
                    "animationTracks" : {

                    }
                  },
                  {
                    "id" : 62,
                    "_type" : "Callout",
                    "def" : {
                        "kind" : "remix",
                        "shape" : "text-arrow2",
                        "style" : "urban",
                        "enable-ligatures" : 1.0,
                        "fill-color-blue" : 0.384313725490196,
                        "fill-color-green" : 0.505882352941176,
                        "fill-color-opacity" : 1.0,
                        "fill-color-red" : 0.96078431372549,
                        "height" : 150.0,
                        "line-spacing" : 0.0,
                        "stroke-color-blue" : 1.0,
                        "stroke-color-green" : 1.0,
                        "stroke-color-opacity" : 1.0,
                        "stroke-color-red" : 1.0,
                        "stroke-width" : 0.0,
                        "tail-x" : 0.0,
                        "tail-y" : -20.0,
                        "width" : 350.0,
                        "word-wrap" : 1.0,
                        "fill-style" : "solid",
                        "horizontal-alignment" : "center",
                        "resize-behavior" : "resizeText",
                        "stroke-style" : "solid",
                        "text" : "此处写 #include 语句",
                        "vertical-alignment" : "center",
                        "font" : {
                          "color-blue" : 1.0,
                          "color-green" : 1.0,
                          "color-red" : 1.0,
                          "size" : 70.0,
                          "tracking" : 0.0,
                          "name" : "Dosis",
                          "weight" : "Semi Bold"
                        },
                        "textAttributes" : {
                          "type" : "textAttributeList",
                          "keyframes" : [
                            {
                              "endTime" : 0,
                              "time" : 0,
                              "value" : [{"name":"strikethrough","rangeEnd":25,"rangeStart":0,"value":0,"valueType":"int"},{"name":"kerning","rangeEnd":25,"rangeStart":0,"value":0.0,"valueType":"double"},{"name":"fontItalic","rangeEnd":25,"rangeStart":0,"value":0,"valueType":"int"},{"name":"fontSize","rangeEnd":25,"rangeStart":0,"value":70.0,"valueType":"double"},{"name":"fgColor","rangeEnd":25,"rangeStart":0,"value":"(255,255,255,255)","valueType":"color"},{"name":"fontWeight","rangeEnd":25,"rangeStart":0,"value":400,"valueType":"int"},{"name":"fontName","rangeEnd":10,"rangeStart":0,"value":"Microsoft YaHei","valueType":"string"},{"name":"fontName","rangeEnd":19,"rangeStart":10,"value":"Dosis","valueType":"string"},{"name":"underline","rangeEnd":25,"rangeStart":0,"value":0,"valueType":"int"},{"name":"fontName","rangeEnd":25,"rangeStart":19,"value":"Microsoft YaHei","valueType":"string"}],
                              "duration" : 0
                            }
                          ]
                        }
                    },
                    "attributes" : {
                      "ident" : "",
                      "autoRotateText" : true
                    },
                    "parameters" : {
                      "translation0" : 360.869565217391,
                      "translation1" : 75.0,
                      "rotation2" : 3.14159265358979,
                      "sourceCrop0" : 0.0,
                      "sourceCrop1" : 0.0,
                      "sourceCrop2" : 0.0,
                      "sourceCrop3" : 0.0,
                      "geometryCrop0" : 0.0,
                      "geometryCrop1" : 0.0,
                      "geometryCrop2" : 0.0,
                      "geometryCrop3" : 0.0
                    },
                    "effects" : [

                    ],
                    "start" : 27212640000,
                    "duration" : 823200000,
                    "mediaStart" : 0,
                    "mediaDuration" : 823200000,
                    "scalar" : 1,
                    "metadata" : {
                      "clipSpeedAttribute" : false,
                      "default-HAlign" : "center",
                      "default-LineSpace" : 0.0,
                      "default-VAlign" : "center",
                      "default-anchor0" : 0.0,
                      "default-anchor1" : 0.0,
                      "default-anchor2" : 0.0,
                      "default-height" : 314.0,
                      "default-rotation0" : 0.0,
                      "default-rotation1" : 0.0,
                      "default-rotation2" : 0.0,
                      "default-scale0" : 1.0,
                      "default-scale1" : 1.0,
                      "default-scale2" : 1.0,
                      "default-shear0" : 0.0,
                      "default-shear1" : 0.0,
                      "default-shear2" : 0.0,
                      "default-text-attributes" : null,
                      "default-translation0" : 0.0,
                      "default-translation1" : 0.0,
                      "default-translation2" : 0.0,
                      "default-width" : 488.0
                    },
                    "animationTracks" : {

                    }
                  },
                  {
                    "id" : 63,
                    "_type" : "Callout",
                    "def" : {
                        "kind" : "remix",
                        "shape" : "text-arrow2",
                        "style" : "urban",
                        "enable-ligatures" : 1.0,
                        "fill-color-blue" : 0.384313725490196,
                        "fill-color-green" : 0.505882352941176,
                        "fill-color-opacity" : 1.0,
                        "fill-color-red" : 0.96078431372549,
                        "height" : 150.0,
                        "line-spacing" : 0.0,
                        "stroke-color-blue" : 1.0,
                        "stroke-color-green" : 1.0,
                        "stroke-color-opacity" : 1.0,
                        "stroke-color-red" : 1.0,
                        "stroke-width" : 0.0,
                        "tail-x" : 0.0,
                        "tail-y" : -20.0,
                        "width" : 350.0,
                        "word-wrap" : 1.0,
                        "fill-style" : "solid",
                        "horizontal-alignment" : "center",
                        "resize-behavior" : "resizeText",
                        "stroke-style" : "solid",
                        "text" : "此处填入包含头文件的【目录】",
                        "vertical-alignment" : "center",
                        "font" : {
                          "color-blue" : 1.0,
                          "color-green" : 1.0,
                          "color-red" : 1.0,
                          "size" : 70.0,
                          "tracking" : 0.0,
                          "name" : "Dosis",
                          "weight" : "Semi Bold"
                        },
                        "textAttributes" : {
                          "type" : "textAttributeList",
                          "keyframes" : [
                            {
                              "endTime" : 0,
                              "time" : 0,
                              "value" : [{"name":"underline","rangeEnd":42,"rangeStart":0,"value":0,"valueType":"int"},{"name":"fontItalic","rangeEnd":42,"rangeStart":0,"value":0,"valueType":"int"},{"name":"fontSize","rangeEnd":42,"rangeStart":0,"value":70.0,"valueType":"double"},{"name":"fontName","rangeEnd":42,"rangeStart":0,"value":"Microsoft YaHei","valueType":"string"},{"name":"kerning","rangeEnd":42,"rangeStart":0,"value":0.0,"valueType":"double"},{"name":"strikethrough","rangeEnd":42,"rangeStart":0,"value":0,"valueType":"int"},{"name":"fgColor","rangeEnd":42,"rangeStart":0,"value":"(255,255,255,255)","valueType":"color"},{"name":"fontWeight","rangeEnd":42,"rangeStart":0,"value":400,"valueType":"int"}],
                              "duration" : 0
                            }
                          ]
                        }
                    },
                    "attributes" : {
                      "ident" : "",
                      "autoRotateText" : true
                    },
                    "parameters" : {
                      "translation0" : 290.217391304348,
                      "translation1" : 75.0,
                      "rotation2" : 3.14159265358979,
                      "sourceCrop0" : 0.0,
                      "sourceCrop1" : 0.0,
                      "sourceCrop2" : 0.0,
                      "sourceCrop3" : 0.0,
                      "geometryCrop0" : 0.0,
                      "geometryCrop1" : 0.0,
                      "geometryCrop2" : 0.0,
                      "geometryCrop3" : 0.0
                    },
                    "effects" : [

                    ],
                    "start" : 29564640000,
                    "duration" : 658560000,
                    "mediaStart" : 446880000,
                    "mediaDuration" : 658560000,
                    "scalar" : 1,
                    "metadata" : {
                      "clipSpeedAttribute" : false,
                      "default-HAlign" : "center",
                      "default-LineSpace" : 0.0,
                      "default-VAlign" : "center",
                      "default-anchor0" : 0.0,
                      "default-anchor1" : 0.0,
                      "default-anchor2" : 0.0,
                      "default-height" : 314.0,
                      "default-rotation0" : 0.0,
                      "default-rotation1" : 0.0,
                      "default-rotation2" : 0.0,
                      "default-scale0" : 1.0,
                      "default-scale1" : 1.0,
                      "default-scale2" : 1.0,
                      "default-shear0" : 0.0,
                      "default-shear1" : 0.0,
                      "default-shear2" : 0.0,
                      "default-text-attributes" : null,
                      "default-translation0" : 0.0,
                      "default-translation1" : 0.0,
                      "default-translation2" : 0.0,
                      "default-width" : 488.0
                    },
                    "animationTracks" : {

                    }
                  },
                  {
                    "id" : 64,
                    "_type" : "Callout",
                    "def" : {
                        "kind" : "remix",
                        "shape" : "text-arrow2",
                        "style" : "urban",
                        "enable-ligatures" : 1.0,
                        "fill-color-blue" : 0.384313725490196,
                        "fill-color-green" : 0.505882352941176,
                        "fill-color-opacity" : 1.0,
                        "fill-color-red" : 0.96078431372549,
                        "height" : 150.0,
                        "line-spacing" : 0.0,
                        "stroke-color-blue" : 1.0,
                        "stroke-color-green" : 1.0,
                        "stroke-color-opacity" : 1.0,
                        "stroke-color-red" : 1.0,
                        "stroke-width" : 0.0,
                        "tail-x" : 0.0,
                        "tail-y" : -20.0,
                        "width" : 350.0,
                        "word-wrap" : 1.0,
                        "fill-style" : "solid",
                        "horizontal-alignment" : "center",
                        "resize-behavior" : "resizeText",
                        "stroke-style" : "solid",
                        "text" : "此处填 .c 【文件】完整路径",
                        "vertical-alignment" : "center",
                        "font" : {
                          "color-blue" : 1.0,
                          "color-green" : 1.0,
                          "color-red" : 1.0,
                          "size" : 70.0,
                          "tracking" : 0.0,
                          "name" : "Dosis",
                          "weight" : "Semi Bold"
                        },
                        "textAttributes" : {
                          "type" : "textAttributeList",
                          "keyframes" : [
                            {
                              "endTime" : 0,
                              "time" : 0,
                              "value" : [{"name":"underline","rangeEnd":37,"rangeStart":0,"value":0,"valueType":"int"},{"name":"fontWeight","rangeEnd":37,"rangeStart":0,"value":400,"valueType":"int"},{"name":"strikethrough","rangeEnd":37,"rangeStart":0,"value":0,"valueType":"int"},{"name":"fontItalic","rangeEnd":37,"rangeStart":0,"value":0,"valueType":"int"},{"name":"fontName","rangeEnd":10,"rangeStart":0,"value":"Microsoft YaHei","valueType":"string"},{"name":"fontSize","rangeEnd":37,"rangeStart":0,"value":70.0,"valueType":"double"},{"name":"fontName","rangeEnd":37,"rangeStart":13,"value":"Microsoft YaHei","valueType":"string"},{"name":"kerning","rangeEnd":37,"rangeStart":0,"value":0.0,"valueType":"double"},{"name":"fontName","rangeEnd":13,"rangeStart":10,"value":"Dosis","valueType":"string"},{"name":"fgColor","rangeEnd":37,"rangeStart":0,"value":"(255,255,255,255)","valueType":"color"}],
                              "duration" : 0
                            }
                          ]
                        }
                    },
                    "attributes" : {
                      "ident" : "",
                      "autoRotateText" : true
                    },
                    "parameters" : {
                      "translation0" : 419.565217391304,
                      "translation1" : 75.0,
                      "rotation2" : 3.14159265358979,
                      "sourceCrop0" : 0.0,
                      "sourceCrop1" : 0.0,
                      "sourceCrop2" : 0.0,
                      "sourceCrop3" : 0.0,
                      "geometryCrop0" : 0.0,
                      "geometryCrop1" : 0.0,
                      "geometryCrop2" : 0.0,
                      "geometryCrop3" : 0.0
                    },
                    "effects" : [

                    ],
                    "start" : 32833920000,
                    "duration" : 635040000,
                    "mediaStart" : 0,
                    "mediaDuration" : 635040000,
                    "scalar" : 1,
                    "metadata" : {
                      "clipSpeedAttribute" : false,
                      "default-HAlign" : "center",
                      "default-LineSpace" : 0.0,
                      "default-VAlign" : "center",
                      "default-anchor0" : 0.0,
                      "default-anchor1" : 0.0,
                      "default-anchor2" : 0.0,
                      "default-height" : 314.0,
                      "default-rotation0" : 0.0,
                      "default-rotation1" : 0.0,
                      "default-rotation2" : 0.0,
                      "default-scale0" : 1.0,
                      "default-scale1" : 1.0,
                      "default-scale2" : 1.0,
                      "default-shear0" : 0.0,
                      "default-shear1" : 0.0,
                      "default-shear2" : 0.0,
                      "default-text-attributes" : null,
                      "default-translation0" : 0.0,
                      "default-translation1" : 0.0,
                      "default-translation2" : 0.0,
                      "default-width" : 488.0
                    },
                    "animationTracks" : {

                    }
                  },
                  {
                    "id" : 65,
                    "_type" : "Callout",
                    "def" : {
                        "kind" : "remix",
                        "shape" : "shape-rectangle",
                        "style" : "urban",
                        "fill-color-blue" : 0.0,
                        "fill-color-green" : 0.0,
                        "fill-color-opacity" : 0.0,
                        "fill-color-red" : 0.0,
                        "height" : 153.743967391304,
                        "stroke-color-blue" : 0.0745098039215686,
                        "stroke-color-green" : 0.0745098039215686,
                        "stroke-color-opacity" : 1.0,
                        "stroke-color-red" : 0.443137254901961,
                        "stroke-width" : 6.0,
                        "width" : 190.421358695652,
                        "fill-style" : "solid",
                        "stroke-style" : "solid"
                    },
                    "attributes" : {
                      "ident" : "",
                      "autoRotateText" : true
                    },
                    "parameters" : {
                      "translation0" : -273.913043478261,
                      "translation1" : -36.304347826087,
                      "scale0" : 1.22773766315482,
                      "scale1" : 1.22773766315482,
                      "sourceCrop0" : 0.0,
                      "sourceCrop1" : 0.0,
                      "sourceCrop2" : 0.0,
                      "sourceCrop3" : 0.0,
                      "geometryCrop0" : 0.0,
                      "geometryCrop1" : 0.0,
                      "geometryCrop2" : 0.0,
                      "geometryCrop3" : 0.0
                    },
                    "effects" : [

                    ],
                    "start" : 36338400000,
                    "duration" : 1340640000,
                    "mediaStart" : 0,
                    "mediaDuration" : 1340640000,
                    "scalar" : 1,
                    "metadata" : {
                      "clipSpeedAttribute" : false,
                      "default-anchor0" : 0.0,
                      "default-anchor1" : 0.0,
                      "default-anchor2" : 0.0,
                      "default-height" : 186.0,
                      "default-rotation0" : 0.0,
                      "default-rotation1" : 0.0,
                      "default-rotation2" : 0.0,
                      "default-scale0" : 1.0,
                      "default-scale1" : 1.0,
                      "default-scale2" : 1.0,
                      "default-shear0" : 0.0,
                      "default-shear1" : 0.0,
                      "default-shear2" : 0.0,
                      "default-stroke-color-blue" : 1.0,
                      "default-stroke-color-green" : 1.0,
                      "default-stroke-color-red" : 1.0,
                      "default-translation0" : 0.0,
                      "default-translation1" : 0.0,
                      "default-translation2" : 0.0,
                      "default-width" : 246.0
                    },
                    "animationTracks" : {

                    }
                  },
                  {
                    "id" : 66,
                    "_type" : "Callout",
                    "def" : {
                        "kind" : "remix",
                        "shape" : "shape-rectangle",
                        "style" : "urban",
                        "fill-color-blue" : 0.0,
                        "fill-color-green" : 0.0,
                        "fill-color-opacity" : 0.0,
                        "fill-color-red" : 0.0,
                        "height" : 64.7826086956521,
                        "stroke-color-blue" : 0.0745098039215686,
                        "stroke-color-green" : 0.0745098039215686,
                        "stroke-color-opacity" : 1.0,
                        "stroke-color-red" : 0.443137254901961,
                        "stroke-width" : 6.0,
                        "width" : 79.1304347826089,
                        "fill-style" : "solid",
                        "stroke-style" : "solid"
                    },
                    "attributes" : {
                      "ident" : "",
                      "autoRotateText" : true
                    },
                    "parameters" : {
                      "translation0" : 663.565217391304,
                      "translation1" : 117.173913043478,
                      "sourceCrop0" : 0.0,
                      "sourceCrop1" : 0.0,
                      "sourceCrop2" : 0.0,
                      "sourceCrop3" : 0.0,
                      "geometryCrop0" : 0.0,
                      "geometryCrop1" : 0.0,
                      "geometryCrop2" : 0.0,
                      "geometryCrop3" : 0.0
                    },
                    "effects" : [

                    ],
                    "start" : 40877760000,
                    "duration" : 752640000,
                    "mediaStart" : 0,
                    "mediaDuration" : 752640000,
                    "scalar" : 1,
                    "metadata" : {
                      "clipSpeedAttribute" : false,
                      "default-anchor0" : 0.0,
                      "default-anchor1" : 0.0,
                      "default-anchor2" : 0.0,
                      "default-height" : 186.0,
                      "default-rotation0" : 0.0,
                      "default-rotation1" : 0.0,
                      "default-rotation2" : 0.0,
                      "default-scale0" : 1.0,
                      "default-scale1" : 1.0,
                      "default-scale2" : 1.0,
                      "default-shear0" : 0.0,
                      "default-shear1" : 0.0,
                      "default-shear2" : 0.0,
                      "default-stroke-color-blue" : 1.0,
                      "default-stroke-color-green" : 1.0,
                      "default-stroke-color-red" : 1.0,
                      "default-translation0" : 0.0,
                      "default-translation1" : 0.0,
                      "default-translation2" : 0.0,
                      "default-width" : 246.0
                    },
                    "animationTracks" : {

                    }
                  }
                ]
              },
              {
                "trackIndex" : 2,
                "medias" : [
                  {
                    "id" : 67,
                    "_type" : "Callout",
                    "def" : {
                        "kind" : "remix",
                        "shape" : "text",
                        "style" : "urban",
                        "enable-ligatures" : 1.0,
                        "height" : 250.0,
                        "line-spacing" : 0.0,
                        "width" : 760.869565217391,
                        "word-wrap" : 1.0,
                        "horizontal-alignment" : "center",
                        "resize-behavior" : "resizeText",
                        "text" : "填绝对路径也是可以的",
                        "vertical-alignment" : "center",
                        "font" : {
                          "color-blue" : 1.0,
                          "color-green" : 1.0,
                          "color-red" : 1.0,
                          "size" : 70.0,
                          "tracking" : 0.0,
                          "name" : "Dosis",
                          "weight" : "Semi Bold"
                        },
                        "textAttributes" : {
                          "type" : "textAttributeList",
                          "keyframes" : [
                            {
                              "endTime" : 0,
                              "time" : 0,
                              "value" : [{"name":"fontSize","rangeEnd":30,"rangeStart":0,"value":70.0,"valueType":"double"},{"name":"underline","rangeEnd":30,"rangeStart":0,"value":0,"valueType":"int"},{"name":"fgColor","rangeEnd":30,"rangeStart":0,"value":"(74,74,137,255)","valueType":"color"},{"name":"fontName","rangeEnd":30,"rangeStart":0,"value":"Microsoft YaHei","valueType":"string"},{"name":"fontWeight","rangeEnd":30,"rangeStart":0,"value":400,"valueType":"int"},{"name":"kerning","rangeEnd":30,"rangeStart":0,"value":0.0,"valueType":"double"},{"name":"fontItalic","rangeEnd":30,"rangeStart":0,"value":0,"valueType":"int"},{"name":"strikethrough","rangeEnd":30,"rangeStart":0,"value":0,"valueType":"int"}],
                              "duration" : 0
                            }
                          ]
                        }
                    },
                    "attributes" : {
                      "ident" : "",
                      "autoRotateText" : true
                    },
                    "parameters" : {
                      "translation0" : 252.173913043478,
                      "sourceCrop0" : 0.0,
                      "sourceCrop1" : 0.0,
                      "sourceCrop2" : 0.0,
                      "sourceCrop3" : 0.0,
                      "geometryCrop0" : 0.0,
                      "geometryCrop1" : 0.0,
                      "geometryCrop2" : 0.0,
                      "geometryCrop3" : 0.0
                    },
                    "effects" : [

                    ],
                    "start" : 30317280000,
                    "duration" : 682080000,
                    "mediaStart" : 0,
                    "mediaDuration" : 682080000,
                    "scalar" : 1,
                    "metadata" : {
                      "clipSpeedAttribute" : false,
                      "default-HAlign" : "center",
                      "default-LineSpace" : 0.0,
                      "default-VAlign" : "center",
                      "default-anchor0" : 0.0,
                      "default-anchor1" : 0.0,
                      "default-anchor2" : 0.0,
                      "default-height" : 250.0,
                      "default-rotation0" : 0.0,
                      "default-rotation1" : 0.0,
                      "default-rotation2" : 0.0,
                      "default-scale0" : 1.0,
                      "default-scale1" : 1.0,
                      "default-scale2" : 1.0,
                      "default-shear0" : 0.0,
                      "default-shear1" : 0.0,
                      "default-shear2" : 0.0,
                      "default-text-attributes" : null,
                      "default-translation0" : 0.0,
                      "default-translation1" : 0.0,
                      "default-translation2" : 0.0,
                      "default-width" : 400.0
                    },
                    "animationTracks" : {

                    }
                  },
                  {
                    "id" : 68,
                    "_type" : "Callout",
                    "def" : {
                        "kind" : "remix",
                        "shape" : "text",
                        "style" : "urban",
                        "enable-ligatures" : 1.0,
                        "height" : 250.0,
                        "line-spacing" : 0.0,
                        "width" : 758.695652173913,
                        "word-wrap" : 1.0,
                        "horizontal-alignment" : "center",
                        "resize-behavior" : "resizeText",
                        "text" : "注意是文件，要具体到 .c\r用绝对路径也是可以的~",
                        "vertical-alignment" : "center",
                        "font" : {
                          "color-blue" : 1.0,
                          "color-green" : 1.0,
                          "color-red" : 1.0,
                          "size" : 70.0,
                          "tracking" : 0.0,
                          "name" : "Dosis",
                          "weight" : "Semi Bold"
                        },
                        "textAttributes" : {
                          "type" : "textAttributeList",
                          "keyframes" : [
                            {
                              "endTime" : 0,
                              "time" : 0,
                              "value" : [{"name":"fgColor","rangeEnd":65,"rangeStart":0,"value":"(74,74,137,255)","valueType":"color"},{"name":"kerning","rangeEnd":65,"rangeStart":0,"value":0.0,"valueType":"double"},{"name":"fontItalic","rangeEnd":65,"rangeStart":0,"value":0,"valueType":"int"},{"name":"strikethrough","rangeEnd":65,"rangeStart":0,"value":0,"valueType":"int"},{"name":"fontSize","rangeEnd":65,"rangeStart":0,"value":70.0,"valueType":"double"},{"name":"fontName","rangeEnd":30,"rangeStart":0,"value":"Microsoft YaHei","valueType":"string"},{"name":"fontWeight","rangeEnd":65,"rangeStart":0,"value":400,"valueType":"int"},{"name":"underline","rangeEnd":65,"rangeStart":0,"value":0,"valueType":"int"},{"name":"fontName","rangeEnd":34,"rangeStart":30,"value":"Dosis","valueType":"string"},{"name":"fontName","rangeEnd":65,"rangeStart":64,"value":"Dosis","valueType":"string"},{"name":"fontName","rangeEnd":64,"rangeStart":34,"value":"Microsoft YaHei","valueType":"string"}],
                              "duration" : 0
                            }
                          ]
                        }
                    },
                    "attributes" : {
                      "ident" : "",
                      "autoRotateText" : true
                    },
                    "parameters" : {
                      "translation0" : 275.0,
                      "translation1" : -72.321428571429,
                      "sourceCrop0" : 0.0,
                      "sourceCrop1" : 0.0,
                      "sourceCrop2" : 0.0,
                      "sourceCrop3" : 0.0,
                      "geometryCrop0" : 0.0,
                      "geometryCrop1" : 0.0,
                      "geometryCrop2" : 0.0,
                      "geometryCrop3" : 0.0
                    },
                    "effects" : [

                    ],
                    "start" : 35374080000,
                    "duration" : 846720000,
                    "mediaStart" : 1905120000,
                    "mediaDuration" : 846720000,
                    "scalar" : 1,
                    "metadata" : {
                      "clipSpeedAttribute" : false,
                      "default-HAlign" : "center",
                      "default-LineSpace" : 0.0,
                      "default-VAlign" : "center",
                      "default-anchor0" : 0.0,
                      "default-anchor1" : 0.0,
                      "default-anchor2" : 0.0,
                      "default-height" : 250.0,
                      "default-rotation0" : 0.0,
                      "default-rotation1" : 0.0,
                      "default-rotation2" : 0.0,
                      "default-scale0" : 1.0,
                      "default-scale1" : 1.0,
                      "default-scale2" : 1.0,
                      "default-shear0" : 0.0,
                      "default-shear1" : 0.0,
                      "default-shear2" : 0.0,
                      "default-text-attributes" : null,
                      "default-translation0" : 0.0,
                      "default-translation1" : 0.0,
                      "default-translation2" : 0.0,
                      "default-width" : 400.0
                    },
                    "animationTracks" : {

                    }
                  },
                  {
                    "id" : 69,
                    "_type" : "Callout",
                    "def" : {
                        "kind" : "remix",
                        "shape" : "text",
                        "style" : "urban",
                        "enable-ligatures" : 1.0,
                        "height" : 250.0,
                        "line-spacing" : 0.0,
                        "width" : 882.608695652174,
                        "word-wrap" : 1.0,
                        "horizontal-alignment" : "center",
                        "resize-behavior" : "resizeText",
                        "text" : "其他这些是编译所需的库(.lib, .dll, .so, .a...)和编译选项或宏定义\r本例暂不涉及，熟悉C/C++编译的朋友\r应该不陌生",
                        "vertical-alignment" : "center",
                        "font" : {
                          "color-blue" : 1.0,
                          "color-green" : 1.0,
                          "color-red" : 1.0,
                          "size" : 70.0,
                          "tracking" : 0.0,
                          "name" : "Dosis",
                          "weight" : "Semi Bold"
                        },
                        "textAttributes" : {
                          "type" : "textAttributeList",
                          "keyframes" : [
                            {
                              "endTime" : 0,
                              "time" : 0,
                              "value" : [{"name":"underline","rangeEnd":148,"rangeStart":0,"value":0,"valueType":"int"},{"name":"fontName","rangeEnd":148,"rangeStart":117,"value":"Microsoft YaHei","valueType":"string"},{"name":"strikethrough","rangeEnd":148,"rangeStart":0,"value":0,"valueType":"int"},{"name":"fontName","rangeEnd":57,"rangeStart":33,"value":"Dosis","valueType":"string"},{"name":"kerning","rangeEnd":148,"rangeStart":0,"value":0.0,"valueType":"double"},{"name":"fgColor","rangeEnd":148,"rangeStart":0,"value":"(113,19,19,255)","valueType":"color"},{"name":"fontName","rangeEnd":117,"rangeStart":112,"value":"Dosis","valueType":"string"},{"name":"fontName","rangeEnd":112,"rangeStart":57,"value":"Microsoft YaHei","valueType":"string"},{"name":"fontSize","rangeEnd":148,"rangeStart":0,"value":70.0,"valueType":"double"},{"name":"fontItalic","rangeEnd":148,"rangeStart":0,"value":0,"valueType":"int"},{"name":"fontName","rangeEnd":33,"rangeStart":0,"value":"Microsoft YaHei","valueType":"string"},{"name":"fontWeight","rangeEnd":148,"rangeStart":0,"value":400,"valueType":"int"}],
                              "duration" : 0
                            }
                          ]
                        }
                    },
                    "attributes" : {
                      "ident" : "",
                      "autoRotateText" : true
                    },
                    "parameters" : {
                      "translation0" : 342.980693491623,
                      "translation1" : -72.321428571429,
                      "sourceCrop0" : 0.0,
                      "sourceCrop1" : 0.0,
                      "sourceCrop2" : 0.0,
                      "sourceCrop3" : 0.0,
                      "geometryCrop0" : 0.0,
                      "geometryCrop1" : 0.0,
                      "geometryCrop2" : 0.0,
                      "geometryCrop3" : 0.0
                    },
                    "effects" : [

                    ],
                    "start" : 36220800000,
                    "duration" : 1458240000,
                    "mediaStart" : 0,
                    "mediaDuration" : 1458240000,
                    "scalar" : 1,
                    "metadata" : {
                      "clipSpeedAttribute" : false,
                      "default-HAlign" : "center",
                      "default-LineSpace" : 0.0,
                      "default-VAlign" : "center",
                      "default-anchor0" : 0.0,
                      "default-anchor1" : 0.0,
                      "default-anchor2" : 0.0,
                      "default-height" : 250.0,
                      "default-rotation0" : 0.0,
                      "default-rotation1" : 0.0,
                      "default-rotation2" : 0.0,
                      "default-scale0" : 1.0,
                      "default-scale1" : 1.0,
                      "default-scale2" : 1.0,
                      "default-shear0" : 0.0,
                      "default-shear1" : 0.0,
                      "default-shear2" : 0.0,
                      "default-text-attributes" : null,
                      "default-translation0" : 0.0,
                      "default-translation1" : 0.0,
                      "default-translation2" : 0.0,
                      "default-width" : 400.0
                    },
                    "animationTracks" : {

                    }
                  },
                  {
                    "id" : 70,
                    "_type" : "Callout",
                    "def" : {
                        "kind" : "remix",
                        "shape" : "text",
                        "style" : "urban",
                        "enable-ligatures" : 1.0,
                        "height" : 125.0,
                        "line-spacing" : 0.0,
                        "width" : 400.0,
                        "word-wrap" : 1.0,
                        "horizontal-alignment" : "center",
                        "resize-behavior" : "resizeText",
                        "text" : "填写函数名",
                        "vertical-alignment" : "center",
                        "font" : {
                          "color-blue" : 1.0,
                          "color-green" : 1.0,
                          "color-red" : 1.0,
                          "size" : 70.0,
                          "tracking" : 0.0,
                          "name" : "Dosis",
                          "weight" : "Semi Bold"
                        },
                        "textAttributes" : {
                          "type" : "textAttributeList",
                          "keyframes" : [
                            {
                              "endTime" : 0,
                              "time" : 0,
                              "value" : [{"name":"kerning","rangeEnd":15,"rangeStart":0,"value":0.0,"valueType":"double"},{"name":"underline","rangeEnd":15,"rangeStart":0,"value":0,"valueType":"int"},{"name":"strikethrough","rangeEnd":15,"rangeStart":0,"value":0,"valueType":"int"},{"name":"fontItalic","rangeEnd":15,"rangeStart":0,"value":0,"valueType":"int"},{"name":"fgColor","rangeEnd":15,"rangeStart":0,"value":"(74,74,137,255)","valueType":"color"},{"name":"fontName","rangeEnd":15,"rangeStart":0,"value":"Microsoft YaHei","valueType":"string"},{"name":"fontWeight","rangeEnd":15,"rangeStart":0,"value":400,"valueType":"int"},{"name":"fontSize","rangeEnd":15,"rangeStart":0,"value":70.0,"valueType":"double"}],
                              "duration" : 0
                            }
                          ]
                        }
                    },
                    "attributes" : {
                      "ident" : "",
                      "autoRotateText" : true
                    },
                    "parameters" : {
                      "translation1" : 161.413043478261,
                      "sourceCrop0" : 0.0,
                      "sourceCrop1" : 0.0,
                      "sourceCrop2" : 0.0,
                      "sourceCrop3" : 0.0,
                      "geometryCrop0" : 0.0,
                      "geometryCrop1" : 0.0,
                      "geometryCrop2" : 0.0,
                      "geometryCrop3" : 0.0
                    },
                    "effects" : [

                    ],
                    "start" : 39137280000,
                    "duration" : 940800000,
                    "mediaStart" : 0,
                    "mediaDuration" : 940800000,
                    "scalar" : 1,
                    "metadata" : {
                      "clipSpeedAttribute" : false,
                      "default-HAlign" : "center",
                      "default-LineSpace" : 0.0,
                      "default-VAlign" : "center",
                      "default-anchor0" : 0.0,
                      "default-anchor1" : 0.0,
                      "default-anchor2" : 0.0,
                      "default-height" : 250.0,
                      "default-rotation0" : 0.0,
                      "default-rotation1" : 0.0,
                      "default-rotation2" : 0.0,
                      "default-scale0" : 1.0,
                      "default-scale1" : 1.0,
                      "default-scale2" : 1.0,
                      "default-shear0" : 0.0,
                      "default-shear1" : 0.0,
                      "default-shear2" : 0.0,
                      "default-text-attributes" : null,
                      "default-translation0" : 0.0,
                      "default-translation1" : 0.0,
                      "default-translation2" : 0.0,
                      "default-width" : 400.0
                    },
                    "animationTracks" : {

                    }
                  }
                ]
              }            ]
          }
        }
      ]
    },
    "trackAttributes" : [
      {
        "ident" : "",
        "audioMuted" : false,
        "videoHidden" : false,
        "magnetic" : false,
        "matte" : 0,
        "solo" : false,
        "metadata" : {
          "IsLocked" : "False",
          "WinTrackHeight" : "56"
        }
      },
      {
        "ident" : "",
        "audioMuted" : false,
        "videoHidden" : false,
        "magnetic" : false,
        "matte" : 0,
        "solo" : false,
        "metadata" : {
          "IsLocked" : "False",
          "WinTrackHeight" : "56"
        }
      },
      {
        "ident" : "",
        "audioMuted" : false,
        "videoHidden" : false,
        "magnetic" : false,
        "matte" : 0,
        "solo" : false,
        "metadata" : {
          "IsLocked" : "False",
          "WinTrackHeight" : "56"
        }
      }
    ],
    "captionAttributes" : {
      "enabled" : true,
      "fontName" : "Arial",
      "fontSize" : 63,
      "backgroundColor" : [ 0, 0, 0, 191],
      "foregroundColor" : [ 255, 255, 255, 255],
      "lang" : "en",
      "alignment" : 0,
      "defaultFontSize" : true,
      "opacity" : 0.5,
      "backgroundEnabled" : true,
      "backgroundOnlyAroundText" : true
    },
    "gain" : 1.0,
    "legacyAttenuateAudioMix" : false,
    "backgroundColor" : [ 0, 0, 0, 255]
  },
  "metadata" : {
    "AutoSaveFile" : "C:\\Users\\lyan\\AppData\\Local\\TechSmith\\Camtasia Studio\\23.0\\Auto-Saves\\CCallerOrOthers5e6a3a.autosave.tscproj",
    "CanvasZoom" : 46,
    "Date" : "2023-09-22 02:35:54 PM",
    "Fit" : 1,
    "IsAutoSave" : false,
    "IsStandalone" : true,
    "Language" : "ENU",
    "ProfileName" : "",
    "ProjectDimensionsChanged" : "1",
    "ProjectThumbnail" : "iVBORw0KGgoAAAANSUhEUgAAAkAAAAFoCAYAAAC/jUTwAAAAAXNSR0IArs4c6QAAAARnQU1BAACx\r\njwv8YQUAAAAJcEhZcwAAFiUAABYlAUlSJPAAAAYXSURBVHhe7chBDcAwAMSw8ifdFUAQ3BzJn5zX\r\nBQD4mZwAAMtyAgAsywkAsCwnAMCynAAAy3ICACzLCQCwLCcAwLKcAADLcgIALMsJALAsJwDAspwA\r\nAMtyAgAsywkAsCwnAMCynAAAy3ICACzLCQCwLCcAwLKcAADLcgIALMsJALAsJwDAspwAAMtyAgAs\r\nywkAsCwnAMCynAAAy3ICACzLCQCwLCcAwLKcAADLcgIALMsJALAsJwDAspwAAMtyAgAsywkAsCwn\r\nAMCynAAAy3ICACzLCQCwLCcAwLKcAADLcgIALMsJALAsJwDAspwAAMtyAgAsywkAsCwnAMCynAAA\r\ny3ICACzLCQCwLCcAwLKcAADLcgIALMsJALAsJwDAspwAAMtyAgAsywkAsCwnAMCynAAAy3ICACzL\r\nCQCwLCcAwLKcAADLcgIALMsJALAsJwDAspwAAMtyAgAsywkAsCwnAMCynAAAy3ICACzLCQCwLCcA\r\nwLKcAADLcgIALMsJALAsJwDAspwAAMtyAgAsywkAsCwnAMCynAAAy3ICACzLCQCwLCcAwLKcAADL\r\ncgIALMsJALAsJwDAspwAAMtyAgAsywkAsCwnAMCynAAAy3ICACzLCQCwLCcAwLKcAADLcgIALMsJ\r\nALAsJwDAspwAAMtyAgAsywkAsCwnAMCynAAAy3ICACzLCQCwLCcAwLKcAADLcgIALMsJALAsJwDA\r\nspwAAMtyAgAsywkAsCwnAMCynAAAy3ICACzLCQCwLCcAwLKcAADLcgIALMsJALAsJwDAspwAAMty\r\nAgAsywkAsCwnAMCynAAAy3ICACzLCQCwLCcAwLKcAADLcgIALMsJALAsJwDAspwAAMtyAgAsywkA\r\nsCwnAMCynAAAy3ICACzLCQCwLCcAwLKcAADLcgIALMsJALAsJwDAspwAAMtyAgAsywkAsCwnAMCy\r\nnAAAy3ICACzLCQCwLCcAwLKcAADLcgIALMsJALAsJwDAspwAAMtyAgAsywkAsCwnAMCynAAAy3IC\r\nACzLCQCwLCcAwLKcAADLcgIALMsJALAsJwDAspwAAMtyAgAsywkAsCwnAMCynAAAy3ICACzLCQCw\r\nLCcAwLKcAADLcgIALMsJALAsJwDAspwAAMtyAgAsywkAsCwnAMCynAAAy3ICACzLCQCwLCcAwLKc\r\nAADLcgIALMsJALAsJwDAspwAAMtyAgAsywkAsCwnAMCynAAAy3ICACzLCQCwLCcAwLKcAADLcgIA\r\nLMsJALAsJwDAspwAAMtyAgAsywkAsCwnAMCynAAAy3ICACzLCQCwLCcAwLKcAADLcgIALMsJALAs\r\nJwDAspwAAMtyAgAsywkAsCwnAMCynAAAy3ICACzLCQCwLCcAwLKcAADLcgIALMsJALAsJwDAspwA\r\nAMtyAgAsywkAsCwnAMCynAAAy3ICACzLCQCwLCcAwLKcAADLcgIALMsJALAsJwDAspwAAMtyAgAs\r\nywkAsCwnAMCynAAAy3ICACzLCQCwLCcAwLKcAADLcgIALMsJALAsJwDAspwAAMtyAgAsywkAsCwn\r\nAMCynAAAy3ICACzLCQCwLCcAwLKcAADLcgIALMsJALAsJwDAspwAAMtyAgAsywkAsCwnAMCynAAA\r\ny3ICACzLCQCwLCcAwLKcAADLcgIALMsJALAsJwDAspwAAMtyAgAsywkAsCwnAMCynAAAy3ICACzL\r\nCQCwLCcAwLKcAADLcgIALMsJALAsJwDAspwAAMtyAgAsywkAsCwnAMCynAAAy3ICACzLCQCwLCcA\r\nwLKcAADLcgIALMsJALAsJwDAspwAAMtyAgAsywkAsCwnAMCynAAAy3ICACzLCQCwLCcAwLKcAADL\r\ncgIALMsJALAsJwDAspwAAMtyAgAsywkAsCwnAMCynAAAy3ICACzLCQCwLCcAwLKcAADLcgIALMsJ\r\nALAsJwDAspwAAMtyAgAsywkAsCwnAMCynAAAy3ICACzLCQCwLCcAwLKcAADLcgIALMsJALAsJwDA\r\nspwAAMtyAgAsywkAsCwnAMCynAAAy3ICACzLCQCwLCcAwLKcAADLcgIALMsJADDq3A/DgwVK4xba\r\n9AAAAABJRU5ErkJggg==",
    "RulerGuidesX" : [],
    "RulerGuidesY" : [],
    "RulerShowing" : false,
    "Title" : "CCallerOrOthers",
    "audioNarrationNotes" : "",
    "calloutStyle" : "Urban"
  }
}
